<svg id="Layer_5" enable-background="new 0 0 64 64" height="512" viewBox="0 0 64 64" width="512" xmlns="http://www.w3.org/2000/svg"><path d="m4 15v20.528c0 3.14 1.745 5.963 4.553 7.367l.447.223.447-.224c2.808-1.403 4.553-4.226 4.553-7.366v-20.528c1.654 0 3-1.346 3-3s-1.346-3-3-3v-3c0-2.757-2.243-5-5-5s-5 2.243-5 5v3c-1.654 0-3 1.346-3 3s1.346 3 3 3zm5 25.859c-1.863-1.126-3-3.125-3-5.332v-.527h6v.528c0 2.206-1.137 4.205-3 5.331zm3-23.859h-2v2h2v2h-4v2h4v2h-2v2h2v2h-4v2h4v2h-6v-18h6zm-6-11c0-1.654 1.346-3 3-3s3 1.346 3 3v3h-6zm-2 5h10c.551 0 1 .449 1 1s-.449 1-1 1h-10c-.551 0-1-.449-1-1s.449-1 1-1z"/><path d="m52.54 35.156h2v2h-2z" transform="matrix(.844 -.537 .537 .844 -11.041 34.38)"/><path d="m48.245 28.407h2v2h-2z" transform="matrix(.844 -.537 .537 .844 -8.089 31.04)"/><path d="m50.392 31.782h2v2h-2z" transform="matrix(.844 -.537 .537 .844 -9.565 32.7)"/><path d="m26.738 36h2.37v2h-2.37z" transform="matrix(.537 -.844 .844 .537 -18.283 40.705)"/><path d="m27.087 28h11.853v2h-11.853z" transform="matrix(.537 -.844 .844 .537 -9.179 41.277)"/><path d="m63 45c0-.408-.09-.787-.224-1.151-.358-2.193-1.149-4.298-2.354-6.191l-11.422-17.949v-8.709c1.654 0 3-1.346 3-3v-4c0-1.654-1.346-3-3-3h-16c-1.654 0-3 1.346-3 3v4c0 1.654 1.346 3 3 3v8.709l-11.422 17.949c-.891 1.401-1.547 2.921-1.983 4.519-1.36.326-2.562 1.113-3.402 2.244-.68-.269-1.419-.421-2.193-.421-3.309 0-6 2.691-6 6v.083c-2.508.423-4.486 2.409-4.909 4.917h-2.091v1c0 3.86 3.14 7 7 7h24.976 1.024 12.511c9.092 0 16.489-7.397 16.489-16.489 0-.393-.014-.785-.042-1.175.013-.113.042-.22.042-.336zm-2.151-.572c.042.289.071.579.095.871-.559 1.736-5.835 3.701-11.944 3.701-4.628 0-8.864-2.294-12.953-4.691 3.54-1.668 8.533-3.309 12.953-3.309 6.472 0 11.015 1.681 11.849 3.428zm-28.849-36.428v-4c0-.551.449-1 1-1h16c.551 0 1 .449 1 1v4c0 .551-.449 1-1 1h-16c-.551 0-1-.449-1-1zm3 12.291v-9.291h12v2h-6v2h6v2h-4v2h4v1.291l11.735 18.441c.476.747.871 1.534 1.2 2.346-2.74-1.407-6.922-2.078-10.935-2.078-5.274 0-11.255 2.148-15.012 4.096-3.689-2.161-7.22-4.053-10.882-4.09.055-.091.102-.185.159-.275zm-26.095 31.703 1.429.033-.252-1.219c-.055-.263-.082-.535-.082-.808 0-2.206 1.794-4 4-4s4 1.794 4 4h2c0-1.812-.81-3.434-2.083-4.535.75-.915 1.868-1.465 3.083-1.465 2.206 0 4 1.794 4 4 0 .852-.264 1.665-.763 2.35l1.617 1.177c.528-.725.87-1.548 1.032-2.415 1.368.313 2.49 1.326 2.919 2.732l.346 1.137 1.061-.536c.584-.296 1.186-.445 1.788-.445 1.858 0 3.411 1.28 3.858 3h-31.716c.445-1.72 1.985-3.001 3.763-3.006zm24.071 9.006h-24.976c-2.415 0-4.435-1.721-4.899-4h35.799c-.464 2.279-2.485 4-4.899 4zm13.535 0h-7.621c1.3-1.272 2.11-3.042 2.11-5v-1h-2.09c-.478-2.833-2.942-5-5.91-5-.57 0-1.134.085-1.688.254-.873-1.71-2.499-2.887-4.391-3.179-.411-2.641-2.544-4.715-5.215-5.03.106-.327.228-.647.356-.964.39-.046.755-.081.938-.081 3.504 0 7.162 2.159 11.034 4.444 4.628 2.731 9.414 5.556 14.966 5.556 3.98 0 9.069-.873 11.885-2.752-.862 7.172-6.974 12.752-14.374 12.752z"/><path d="m46 53c-1.654 0-3 1.346-3 3s1.346 3 3 3 3-1.346 3-3-1.346-3-3-3zm0 4c-.551 0-1-.449-1-1s.449-1 1-1 1 .449 1 1-.449 1-1 1z"/><path d="m47 45c0 1.654 1.346 3 3 3s3-1.346 3-3-1.346-3-3-3-3 1.346-3 3zm3-1c.551 0 1 .449 1 1s-.449 1-1 1-1-.449-1-1 .449-1 1-1z"/></svg>