<svg id="Layer_5" enable-background="new 0 0 64 64" height="512" viewBox="0 0 64 64" width="512" xmlns="http://www.w3.org/2000/svg"><path d="m53.465 17-10.252 15.378-4.383-23.378h-1.83v-4h-2v4h-2v-8h-2v8h-2v-4h-2v4h-1.83l-1.305 6.963-17.307 19.037h-3.558v16h-2v12h62v-12h-2v-16h-6.339l6.339-11.974v7.974h2v-11.751-1.249-1zm-12.465 44h-18v-4h18zm-18.08-20c-.157-1.089-.56-2.099-1.159-2.967l.944-5.033h8.295v2h-4v6zm-6.92-4c2.757 0 5 2.243 5 5s-2.243 5-5 5-5-2.243-5-5 2.243-5 5-5zm18-20c0 1.103-.897 2-2 2s-2-.897-2-2 .897-2 2-2 2 .897 2 2zm0 6c0 1.103-.897 2-2 2s-2-.897-2-2 .897-2 2-2 2 .897 2 2zm1.858 1h3.75l1.313 7h-7.921v-4.142c1.399-.364 2.494-1.459 2.858-2.858zm-6.476-4c-.597.521-1.035 1.21-1.24 2h-3.374l1.312-7h2.476c-.344.591-.556 1.268-.556 2 0 1.2.542 2.266 1.382 3zm-4.989 4h3.749c.364 1.399 1.459 2.494 2.858 2.858v4.142h-7.92zm4.607 31v-18h6v18zm4-20v-2h8.295l.375 2h-2.67v6h-2v-6zm15.228-6.539.307-.461h7.569l-3.551 6.708zm2.094 6.539h-6.454l3.166-4.749zm-.453-9 4.008-6.011 3.005 6.011zm-10.637-4h-3.375c-.205-.79-.643-1.479-1.24-2 .841-.734 1.383-1.8 1.383-3 0-.732-.212-1.409-.556-2h2.476zm-2.062-11 .375 2h-11.09l.375-2zm-14.008 8.708-3.111 16.593c-1.145-.816-2.541-1.301-4.051-1.301-1.799 0-3.436.688-4.677 1.807l-.602-1.807h-1.46zm-18.162 17.292h4.279l.56 1.68c-.535.989-.839 2.119-.839 3.32 0 3.86 3.14 7 7 7 3.519 0 6.432-2.613 6.92-6h4.08v8h-22zm-2 16h24v2h-6v6h-18zm58 8h-18v-6h-6v-2h24zm-2-10h-22v-8h4v-6h18zm-.832-26.9-2.55-5.1h5.25z"/><path d="m16 45c1.654 0 3-1.346 3-3s-1.346-3-3-3-3 1.346-3 3 1.346 3 3 3zm0-4c.551 0 1 .449 1 1s-.449 1-1 1-1-.449-1-1 .449-1 1-1z"/><path d="m55 47h2v2h-2z"/><path d="m55 43h2v2h-2z"/><path d="m55 39h2v2h-2z"/><path d="m9 57h2v2h-2z"/><path d="m5 57h2v2h-2z"/><path d="m13 57h2v2h-2z"/><path d="m49 55h2v2h-2z"/><path d="m53 55h2v2h-2z"/><path d="m57 55h2v2h-2z"/></svg>