<svg id="Layer_5" enable-background="new 0 0 64 64" height="512" viewBox="0 0 64 64" width="512" xmlns="http://www.w3.org/2000/svg"><path d="m53.465 1-11.465 17.197v-11.197h-2v-6h-8v6h-6v-6h-8v6h-2v14.525c-3.49 1.239-6 4.565-6 8.475v1.424c-1.763.774-3 2.531-3 4.576v1h3.421c.799 2.819 2.68 5.144 5.132 6.547-8.335 2.01-14.553 9.51-14.553 18.453v1h40v-.438c.946.284 1.938.438 3.01.438 3.03 0 4.855-1.154 5.837-1.773.2-.127.311-.204.322-.224.023-.003.049-.003.078-.003.083 0 .231.007.183-.018.092.041.202.118.406.248.981.618 2.808 1.77 5.834 1.77 3.03 0 4.855-1.154 5.836-1.773.201-.127.312-.204.325-.224.044-.006.096-.003.169-.003v-2c-.688 0-.876.103-1.562.536-.923.583-2.317 1.464-4.768 1.464-2.448 0-3.844-.88-4.769-1.463-.685-.434-.874-.537-1.563-.537-.688 0-.876.103-1.561.536-.923.583-2.316 1.464-4.767 1.464-1.126 0-2.14-.198-3.09-.58-.068-.819-.181-1.625-.35-2.412.799.495 1.754.992 3.44.992 1.872 0 2.842-.613 3.698-1.155.747-.472 1.338-.845 2.63-.845 1.294 0 1.884.373 2.632.845.856.542 1.828 1.155 3.7 1.155s2.843-.613 3.699-1.155c.747-.472 1.338-.845 2.631-.845v-2c-1.872 0-2.843.613-3.699 1.155-.747.472-1.338.845-2.631.845-1.294 0-1.884-.373-2.632-.845-.856-.542-1.828-1.155-3.7-1.155-1.871 0-2.842.613-3.698 1.155-.747.472-1.338.845-2.63.845-1.294 0-1.885-.373-2.633-.845-.448-.283-.953-.593-1.608-.821-.293-.778-.621-1.539-1.009-2.265 1.792.211 2.909.905 3.685 1.395.688.433.876.536 1.565.536.688 0 .876-.103 1.561-.536.922-.583 2.316-1.464 4.767-1.464 2.448 0 3.844.88 4.769 1.463.685.434.873.537 1.563.537.688 0 .876-.103 1.562-.536.923-.583 2.317-1.464 4.768-1.464v-2c-1.692 0-2.997.362-4 .788v-16.788h1c1.654 0 3-1.346 3-3v-4c0-1.654-1.346-3-3-3h-1v-1c0-2.542-1.914-4.624-4.373-4.937l6.373-12.037v9.974h2v-13.751-.249-2zm-5.237 11.461.307-.461h7.569l-3.551 6.708zm2.094 6.539h-6.453l3.166-4.749zm-.454-9 4.008-6.011 3.006 6.011zm-15.868-7h4v4h-4zm-14 0h4v4h-4zm-2 6h22v10h-2v6h-4v-7c0-1.654-1.346-3-3-3h-4c-1.654 0-3 1.346-3 3v3.059c-.329-.037-.662-.059-1-.059h-4c-.338 0-.671.022-1 .059zm8 12.525v-3.525c0-.551.448-1 1-1h4c.552 0 1 .449 1 1v7h-1.522c-1.07-1.595-2.639-2.822-4.478-3.475zm-6 1.475h2v3c0 .551-.448 1-1 1s-1-.449-1-1zm-8 7c0-3.519 2.614-6.432 6-6.92v2.92c0 1.654 1.346 3 3 3s3-1.346 3-3v-2.92c3.386.488 6 3.401 6 6.92v1h-2v-4h-2v4h-10v-4h-2v4h-2zm0 3h18c1.304 0 2.416.836 2.829 2h-23.658c.413-1.164 1.525-2 2.829-2zm.522 4h16.955c-1.253 3.538-4.637 6-8.478 6s-7.224-2.462-8.477-6zm9.478 8c1.05 0 2.076.105 3.074.288l-4.074 3.667-4.074-3.666c.998-.184 2.024-.289 3.074-.289zm11 12h-14v-2h14zm-24-2h8v2h-8zm8-2h-8v-3.928c1.635-1.393 3.531-2.48 5.609-3.178l4.896 4.406-2.505 2.255zm-8 6h8v2h-8zm10 0h14v2h-14zm14-6h-13.505l7.896-7.106c2.079.698 3.975 1.785 5.609 3.178zm-26-1.923v9.923h-3.971c.22-3.769 1.683-7.204 3.971-9.923zm28 9.923v-9.923c2.288 2.719 3.751 6.154 3.971 9.923zm9.501-8.227c-.2.127-.311.204-.322.224-.024.003-.049.003-.078.003-.081 0-.229-.005-.185.017-.091-.041-.201-.118-.403-.245-.981-.619-2.805-1.772-5.837-1.772-.072 0-.137.005-.208.007-2.619-3.674-6.505-6.37-11.021-7.459 2.452-1.403 4.333-3.729 5.132-6.547h3.421v-1c0-.342-.035-.677-.101-1h16.101v16.031c-.218-.014-.43-.032-.662-.032-3.03 0-4.856 1.154-5.837 1.773zm12.499.108c-.088.059-.152.104-.161.117-.024.002-.049.002-.078.002-.08 0-.229-.006-.183.018-.092-.041-.201-.118-.406-.248-.649-.409-1.679-1.046-3.172-1.434v-16.336h4zm4-24.881v4c0 .551-.448 1-1 1h-26.026c-.514-.679-1.186-1.23-1.974-1.576v-1.424c0-1.053-.191-2.06-.525-3h28.525c.552 0 1 .449 1 1zm-4-4v1h-17v-4h14c1.654 0 3 1.346 3 3zm1.168-15.9-2.55-5.1h5.25z"/><path d="m20 11h2v2h-2z"/><path d="m49 29h2v2h-2z"/><path d="m57 29h2v2h-2z"/><path d="m53 29h2v2h-2z"/><path d="m24 11h2v2h-2z"/><path d="m28 11h2v2h-2z"/><path d="m32 11h2v2h-2z"/><path d="m36 11h2v2h-2z"/></svg>