<svg id="Layer_5" enable-background="new 0 0 64 64" height="512" viewBox="0 0 64 64" width="512" xmlns="http://www.w3.org/2000/svg"><path d="m33 49c.552 0 1 .449 1 1h2c0-1.654-1.346-3-3-3v-2h-2v2h-3v3c0 1.654 1.346 3 3 3h2c.552 0 1 .449 1 1v1h-3c-.552 0-1-.449-1-1h-2c0 1.654 1.346 3 3 3v2h2v-2h3v-3c0-1.654-1.346-3-3-3h-2c-.552 0-1-.449-1-1v-1z"/><path d="m49 41c-3.338 0-6.419 1.485-8.497 4.031-2.019-2.459-5.08-4.031-8.503-4.031s-6.484 1.572-8.503 4.031c-2.078-2.546-5.159-4.031-8.497-4.031-6.065 0-11 4.935-11 11s4.935 11 11 11c3.338 0 6.419-1.485 8.497-4.031 2.019 2.459 5.08 4.031 8.503 4.031s6.484-1.572 8.503-4.031c2.078 2.546 5.159 4.031 8.497 4.031 6.065 0 11-4.935 11-11s-4.935-11-11-11zm-34 20c-4.963 0-9-4.038-9-9s4.037-9 9-9c2.936 0 5.62 1.418 7.311 3.8-.835 1.55-1.311 3.32-1.311 5.2s.476 3.65 1.311 5.2c-1.691 2.382-4.375 3.8-7.311 3.8zm17 0c-4.963 0-9-4.038-9-9s4.037-9 9-9 9 4.038 9 9-4.037 9-9 9zm17 0c-2.936 0-5.62-1.418-7.311-3.8.835-1.55 1.311-3.32 1.311-5.2s-.476-3.65-1.311-5.2c1.691-2.382 4.375-3.8 7.311-3.8 4.963 0 9 4.038 9 9s-4.037 9-9 9z"/><path d="m50 47c1.103 0 2 .897 2 2h2c0-2.206-1.794-4-4-4s-4 1.794-4 4h-2v2h2v2h-2v2h2c0 2.206 1.794 4 4 4s4-1.794 4-4h-2c0 1.103-.897 2-2 2s-2-.897-2-2h2v-2h-2v-2h2v-2h-2c0-1.103.897-2 2-2z"/><path d="m20.625 46.781-1.25-1.562-4.375 3.5-4.375-3.5-1.25 1.562 4.625 3.7v.519h-2v2h2v2h-2v2h2v2h2v-2h2v-2h-2v-2h2v-2h-2v-.519z"/><path d="m32 39c10.477 0 19-8.523 19-19s-8.523-19-19-19-19 8.523-19 19 8.523 19 19 19zm-13.717-9h6.037c.753 2.611 1.795 4.783 3.043 6.341-3.694-1.05-6.869-3.317-9.08-6.341zm13.717-27c2.088 0 4.265 2.612 5.626 7h-11.252c1.361-4.388 3.538-7 5.626-7zm6.154 9c.467 2.058.762 4.412.823 7h-13.955c.062-2.588.356-4.942.823-7zm10.795 7h-7.973c-.059-2.504-.335-4.862-.794-7h6.809c1.13 2.108 1.811 4.483 1.958 7zm-16.949 18c-2.088 0-4.265-2.612-5.626-7h11.251c-1.36 4.388-3.537 7-5.625 7zm-6.154-9c-.467-2.058-.762-4.412-.823-7h13.956c-.062 2.588-.356 4.942-.823 7zm15.131-7h7.973c-.148 2.517-.828 4.892-1.958 7h-6.809c.459-2.138.735-4.496.794-7zm-17.954-2h-7.973c.148-2.517.828-4.892 1.958-7h6.809c-.459 2.138-.735 4.496-.794 7zm0 2c.059 2.504.335 4.862.794 7h-6.809c-1.129-2.108-1.81-4.483-1.958-7zm13.615 15.341c1.248-1.557 2.29-3.73 3.043-6.341h6.037c-2.212 3.024-5.387 5.291-9.08 6.341zm9.079-26.341h-6.037c-.753-2.611-1.795-4.783-3.043-6.341 3.694 1.05 6.869 3.317 9.08 6.341zm-18.355-6.341c-1.248 1.557-2.29 3.73-3.043 6.341h-6.037c2.212-3.024 5.387-5.291 9.08-6.341z"/><path d="m27 15h2v2h-2z"/><path d="m31 15h2v2h-2z"/><path d="m35 15h2v2h-2z"/><path d="m27 23h2v2h-2z"/><path d="m31 23h2v2h-2z"/><path d="m35 23h2v2h-2z"/><path d="m55 6.662 3.796 4.338h-1.796v19h2v-17h4.204l-10.204-11.662v28.662h2z"/><path d="m57 32h2v2h-2z"/><path d="m57 36h2v2h-2z"/><path d="m11 9h-2v23.338l-3.796-4.338h1.796v-19h-2v17h-4.204l10.204 11.662z"/><path d="m5 5h2v2h-2z"/><path d="m5 1h2v2h-2z"/></svg>