<svg id="Layer_5" enable-background="new 0 0 64 64" height="512" viewBox="0 0 64 64" width="512" xmlns="http://www.w3.org/2000/svg"><path d="m18 33.414 1.586 1.586c.645.645 1.502 1 2.414 1s1.77-.355 2.414-1l12.586-12.586c.645-.645 1-1.502 1-2.414s-.355-1.77-1-2.414l-.586-.586 3-3-1-1 4-4h13.586v-8h-16.343c-1.335 0-2.591.52-3.535 1.464l-4.122 4.122-1-1-3.002 3.001c-1.085-1.025-2.498-1.587-3.998-1.587-1.557 0-3.021.606-4.121 1.707l-2.172 2.172c-1.101 1.1-1.707 2.564-1.707 4.121v1.586l-5 5c-.645.645-1 1.502-1 2.414s.355 1.77 1 2.414l1.586 1.586-6 6 2 2-.707.707c-.567.566-.879 1.32-.879 2.122v21.171c0 .551-.449 1-1 1s-1-.449-1-1v-26c0-1.654-1.346-3-3-3h-1v2h1c.551 0 1 .449 1 1v26c0 1.654 1.346 3 3 3s3-1.346 3-3v-21.171c0-.267.104-.519.293-.708l.707-.707 2 2zm5 .172c-.526.526-1.474.526-2 0l-4.086-4.086 2.086-2.086 3 3 4-4v-5.932c1.01-.688 2.472-.597 3.354.285l3.232 3.233zm-2.586-7.586 3.586-3.586v3.172l-2 2zm17.122-22.122c.558-.558 1.331-.878 2.121-.878h14.343v4h-11.586c-.534 0-1.036.208-1.414.586l-4 4-3.586-3.586zm-25.536 20.122c0-.372.151-.737.414-1l5.586-5.586v-2.414c0-1.022.398-1.984 1.121-2.707l2.172-2.172c.723-.723 1.685-1.121 2.707-1.121s1.984.398 2.707 1.121l1.293 1.293 3-3 5.586 5.586-3 3 2 2c.263.263.414.628.414 1s-.151.737-.414 1l-1.586 1.586-3.232-3.232c-.873-.874-2.034-1.354-3.268-1.354s-2.395.48-3.268 1.354l-8.732 8.732-3.086-3.086c-.263-.263-.414-.628-.414-1zm2 5.414 2.586 2.586-4.586 4.586-2.586-2.586z"/><path d="m57 25.03c0 1.086-.884 1.97-2.03 1.97l.06 2c2.189 0 3.97-1.781 3.97-3.97 0-.756-.214-1.493-.621-2.132l-1.55-2.435-1.688 1.074 1.55 2.435c.203.317.309.683.309 1.058z"/><path d="m48.246 20.75c-.815 1.281-1.246 2.761-1.246 4.28 0 4.395 3.575 7.97 8.03 7.97 4.395 0 7.97-3.575 7.97-7.97 0-1.519-.431-2.999-1.246-4.279l-6.754-10.614zm12.754 4.28c0 3.292-2.678 5.97-6.03 5.97-3.292 0-5.97-2.678-5.97-5.97 0-1.138.323-2.246.934-3.206l5.066-7.961 5.066 7.962c.611.959.934 2.067.934 3.205z"/><path d="m56 35h2v2h-2z"/><path d="m56 39h2v2h-2z"/><path d="m60 49h-1c-.551 0-1-.449-1-1v-5h-2v5c0 1.654 1.346 3 3 3h1c.551 0 1 .449 1 1s-.449 1-1 1h-8c-1.654 0-3 1.346-3 3s1.346 3 3 3h5c.551 0 1 .449 1 1s-.449 1-1 1h-39c-.551 0-1-.449-1-1s.449-1 1-1h16c1.654 0 3-1.346 3-3s-1.346-3-3-3h-5c-.551 0-1-.449-1-1s.449-1 1-1h13c1.654 0 3-1.346 3-3s-1.346-3-3-3h-2c-.551 0-1-.449-1-1s.449-1 1-1h11c1.654 0 3-1.346 3-3v-5h-2v5c0 .551-.449 1-1 1h-11c-1.654 0-3 1.346-3 3s1.346 3 3 3h2c.551 0 1 .449 1 1s-.449 1-1 1h-13c-1.654 0-3 1.346-3 3s1.346 3 3 3h5c.551 0 1 .449 1 1s-.449 1-1 1h-16c-1.654 0-3 1.346-3 3s1.346 3 3 3h39c1.654 0 3-1.346 3-3s-1.346-3-3-3h-5c-.551 0-1-.449-1-1s.449-1 1-1h8c1.654 0 3-1.346 3-3s-1.346-3-3-3z"/><path d="m20.464 13.536h2v2h-2z" transform="matrix(.707 -.707 .707 .707 -3.992 19.435)"/><path d="m23.293 10.707h2v2h-2z" transform="matrix(.707 -.707 .707 .707 -1.163 20.607)"/></svg>