<svg id="Layer_5" enable-background="new 0 0 64 64" height="512" viewBox="0 0 64 64" width="512" xmlns="http://www.w3.org/2000/svg"><path d="m58.414 33.031 5-5-4.414-4.414-5 5-2-2-2.985 2.985-.601-.602h-14.712c-.831 0-1.639.129-2.415.352l-3.506-6.236c-1.646-2.927-4.432-4.977-7.617-5.757 2.059-1.449 3.486-3.734 3.778-6.36h3.058c1.654 0 3-1.346 3-3s-1.346-3-3-3h-4.54c-1.663-2.472-4.459-3.999-7.46-3.999-4.962 0-9 4.038-9 9 0 3.075 1.553 5.793 3.913 7.417-5.123 1.367-8.913 6.035-8.913 11.583v7c0 2.757 2.243 5 5 5h1v17.5c0 2.481 2.019 4.5 4.5 4.5 1.421 0 2.675-.675 3.5-1.706.825 1.031 2.079 1.706 3.5 1.706 2.481 0 4.5-2.019 4.5-4.5v-27.563l2.385 4.239c-.248.815-.385 1.666-.385 2.526v20.298c0 2.757 2.243 5 5 5h24c2.757 0 5-2.243 5-5v-18.414l-1.571-1.571 2.985-2.985zm.586-6.586 1.586 1.586-3.586 3.586-1.586-1.586zm-44-4.859-2.558-2.558c.186-.01.37-.028.558-.028h4.321c.084 0 .165.015.248.017zm4.564-1.736-1.146 5.155-2.004-2.005zm-5.978 3.15-2.005 2.005-1.146-5.155zm14.414-15c0 .551-.449 1-1 1h-9.382l.171-.342c.511-1.023 1.539-1.658 2.683-1.658h6.528c.551 0 1 .449 1 1zm-13-5c1.866 0 3.637.753 4.934 2.037-1.686.18-3.163 1.185-3.934 2.727l-.618 1.236h-7.302c.488-3.387 3.401-6 6.92-6zm-6.92 8h13.84c-.488 3.387-3.401 6-6.92 6s-6.432-2.613-6.92-6zm-2.08 28c-1.654 0-3-1.346-3-3v-1h4v4zm12.5 22c-1.378 0-2.5-1.122-2.5-2.5v-17.5h-2v17.5c0 1.378-1.122 2.5-2.5 2.5s-2.5-1.122-2.5-2.5v-19.5h12v19.5c0 1.378-1.122 2.5-2.5 2.5zm4.5-34.143v-1.857h-2v12h-12v-12h-2v8h-4v-4c0-3.873 2.217-7.231 5.444-8.891l1.975 8.886 4.581-4.581 4.581 4.581 2.004-9.018c1.844.872 3.42 2.285 4.452 4.12l3.392 6.034c-.954.539-1.816 1.251-2.523 2.135-.174.217-.333.444-.484.675zm4 16.143h3c.551 0 1 .449 1 1v12c0 .551-.449 1-1 1h-3zm27 18h-24c-1.302 0-2.402-.839-2.816-2h2.816c1.654 0 3-1.346 3-3v-12c0-1.654-1.346-3-3-3h-3v-3.298c0-1.516.521-3.003 1.468-4.187 1.28-1.598 3.187-2.515 5.234-2.515h13.884l9.414 9.414v.586h-3c-1.654 0-3 1.346-3 3v12c0 1.654 1.346 3 3 3h2.816c-.414 1.161-1.514 2-2.816 2zm0-4c-.551 0-1-.449-1-1v-12c0-.551.449-1 1-1h3v14zm2.015-20.399-5.586-5.586 1.571-1.57 5.586 5.586z"/><path d="m44 33h-12c-1.654 0-3 1.346-3 3s1.346 3 3 3h12c1.654 0 3-1.346 3-3s-1.346-3-3-3zm0 4h-12c-.551 0-1-.449-1-1s.449-1 1-1h12c.551 0 1 .449 1 1s-.449 1-1 1z"/><path d="m42 41.984-4.348 7.608c-.426.747-.652 1.597-.652 2.457 0 2.73 2.221 4.951 5.049 4.951 2.73 0 4.951-2.221 4.951-4.951 0-.86-.226-1.71-.652-2.457zm-.049 13.016c-1.627 0-2.951-1.324-2.951-2.951 0-.513.134-1.02.389-1.464l2.611-4.569 2.611 4.569c.255.445.389.951.389 1.464 0 1.627-1.324 2.951-3.049 2.951z"/></svg>