<svg id="Layer_5" enable-background="new 0 0 64 64" height="512" viewBox="0 0 64 64" width="512" xmlns="http://www.w3.org/2000/svg"><path d="m58 57h-1v-2h1c1.654 0 3-1.346 3-3v-12c0-1.654-1.346-3-3-3h-1v-7c0-1.627-.793-3.061-2-3.974v-3.452c4.61-1.31 8-5.549 8-10.574 0-6.065-4.935-11-11-11-3.852 0-7.242 1.994-9.208 5h-38.792c-1.654 0-3 1.346-3 3v6c0 1.654 1.346 3 3 3h3v8.026c-1.207.913-2 2.347-2 3.974v27.101c-2.279.465-4 2.485-4 4.899v1h62v-1c0-2.757-2.243-5-5-5zm-3 0h-18v-27c0-1.654 1.346-3 3-3h12c1.654 0 3 1.346 3 3v23h-3c-.551 0-1-.449-1-1v-1c1.103 0 2-.897 2-2v-4c0-1.103-.897-2-2-2h-2c-1.103 0-2 .897-2 2v4c0 1.103.897 2 2 2v1c0 .352.072.686.184 1h-5.184c-.551 0-1-.449-1-1v-1c1.103 0 2-.897 2-2v-4c0-1.103-.897-2-2-2h-2c-1.103 0-2 .897-2 2v4c0 1.103.897 2 2 2v1c0 1.654 1.346 3 3 3h8 3zm-28-18h1c.551 0 1 .449 1 1v12c0 .551-.449 1-1 1h-1zm1 16c1.654 0 3-1.346 3-3v-12c0-1.654-1.346-3-3-3h-1v-7c0-2.757-2.243-5-5-5h-7v-7h27.792c1.046 1.6 2.497 2.908 4.208 3.786v3.214h-7c-2.757 0-5 2.243-5 5v27h-8v-2zm21-6v-4h2l.001 4zm-8 0v-4h2l.001 4zm17-10c.551 0 1 .449 1 1v12c0 .551-.449 1-1 1h-1v-14zm-5-13.899c-.323-.066-.658-.101-1-.101h-3v-2.426c.955.271 1.959.426 3 .426.338 0 .67-.021 1-.051zm-1-22.101c4.962 0 9 4.038 9 9s-4.038 9-9 9-9-4.038-9-9 4.038-9 9-9zm-48 5h37.764c-.487 1.242-.764 2.588-.764 4h-38v-3c0-.551.449-1 1-1zm-1 7v-1h38.191c.128.692.322 1.36.573 2h-37.764c-.551 0-1-.449-1-1zm6 3h4v7h-3c-.342 0-.677.035-1 .101zm1 9h12c1.654 0 3 1.346 3 3v23h-3c-.551 0-1-.449-1-1v-1c1.103 0 2-.897 2-2v-4c0-1.103-.897-2-2-2h-2c-1.103 0-2 .897-2 2v4c0 1.103.897 2 2 2v1c0 .352.072.686.184 1h-5.184c-.551 0-1-.449-1-1v-1c1.103 0 2-.897 2-2v-4c0-1.103-.897-2-2-2h-2c-1.103 0-2 .897-2 2v4c0 1.103.897 2 2 2v1c0 1.654 1.346 3 3 3h8 3v2h-18v-27c0-1.654 1.346-3 3-3zm9 22v-4h2l.001 4zm-8 0v-4h2l.001 4zm-7.829 12c.413-1.164 1.525-2 2.829-2h52c1.304 0 2.416.836 2.829 2z"/><path d="m41 39h10c1.103 0 2-.897 2-2v-6c0-1.103-.897-2-2-2h-10c-1.103 0-2 .897-2 2v6c0 1.103.897 2 2 2zm0-8h10l.001 6h-10.001z"/><path d="m11 39h10c1.103 0 2-.897 2-2v-6c0-1.103-.897-2-2-2h-10c-1.103 0-2 .897-2 2v6c0 1.103.897 2 2 2zm0-8h10l.001 6h-10.001z"/><path d="m52.049 19c2.73 0 4.951-2.221 4.951-4.951 0-.86-.226-1.71-.652-2.457l-4.348-7.608-4.348 7.608c-.426.747-.652 1.597-.652 2.457 0 2.73 2.221 4.951 5.049 4.951zm-2.66-6.415 2.611-4.569 2.611 4.569c.255.445.389.951.389 1.464 0 1.627-1.324 2.951-3.049 2.951-1.627 0-2.951-1.324-2.951-2.951 0-.513.134-1.019.389-1.464z"/></svg>