<svg id="Layer_5" enable-background="new 0 0 64 64" height="512" viewBox="0 0 64 64" width="512" xmlns="http://www.w3.org/2000/svg"><path d="m34.105 39.897-1.162-1.627c-.26.186-.743.48-1.571.83l.779 1.842c.789-.333 1.465-.694 1.954-1.045z"/><path d="m30.169 41.651-.58-1.914c-.587.178-1.213.341-1.86.483l.43 1.953c.697-.153 1.374-.329 2.01-.522z"/><path d="m21.954 40.955c-.628.029-1.279.045-1.954.045v2c.706 0 1.389-.017 2.046-.047z"/><path d="m26.131 42.551-.305-1.977c-.609.094-1.253.176-1.929.242l.193 1.99c.716-.069 1.396-.155 2.041-.255z"/><path d="m12.815 58.372c.647.121 1.334.229 2.061.32l.248-1.984c-.684-.086-1.331-.188-1.939-.302z"/><path d="m7 51h-2v4.046l.244.282c.786.908 2.895 1.897 5.502 2.582l.508-1.935c-2.23-.585-3.659-1.3-4.254-1.742z"/><path d="m54 37.03c0 1.086-.884 1.97-2.029 1.97l.06 2c2.188 0 3.97-1.781 3.97-3.97 0-.756-.215-1.494-.62-2.132l-1.55-2.435-1.688 1.074 1.55 2.435c.201.316.307.682.307 1.058z"/><path d="m45.246 32.75c-.815 1.281-1.246 2.761-1.246 4.28 0 4.395 3.575 7.97 8.029 7.97 4.396 0 7.971-3.575 7.971-7.97 0-1.519-.431-2.999-1.246-4.279l-6.754-10.614zm12.754 4.28c0 3.292-2.679 5.97-6.029 5.97-3.292 0-5.971-2.678-5.971-5.97 0-1.138.323-2.246.934-3.206l5.066-7.961 5.066 7.962c.611.959.934 2.067.934 3.205z"/><path d="m60 57h-4c-.552 0-1-.449-1-1v-5h-2v5c0 1.654 1.346 3 3 3h4c.552 0 1 .449 1 1s-.448 1-1 1h-40c-.552 0-1-.449-1-1s.448-1 1-1h20c1.654 0 3-1.346 3-3 0-.551.448-1 1-1h4c1.654 0 3-1.346 3-3v-5h-2v5c0 .551-.448 1-1 1h-4c-1.654 0-3 1.346-3 3 0 .551-.448 1-1 1h-1.561c.43-.764.561-1.462.561-2v-32c0-1.398-.777-3.411-4.357-5.194-.428-1.292-1.221-2.419-2.26-3.255 1.052-3.299 4.096-5.551 7.617-5.551 4.411 0 8 3.589 8 8v4h8v-4c0-8.822-7.178-16-16-16-7.667 0-14.331 5.593-15.719 13.08-.466.294-.897.637-1.28 1.029-1.65-.105-3.336-.113-5.001-.043v-1.066c0-1.654-1.346-3-3-3s-3 1.346-3 3v1.715c-6.805 1.276-11 4.03-11 7.285v32c0 4.561 8.168 8 19 8h40c1.654 0 3-1.346 3-3s-1.346-3-3-3zm-27-37c0 2.757-2.243 5-5 5-2.414 0-4.434-1.721-4.899-4h5.899v-2h-5.899c.465-2.279 2.484-4 4.899-4 2.757 0 5 2.243 5 5zm7-17c7.72 0 14 6.28 14 14v2h-4v-2c0-5.514-4.486-10-10-10-4.248 0-7.935 2.627-9.369 6.518-.813-.332-1.7-.518-2.631-.518-.497 0-.981.054-1.449.153 1.695-5.892 7.189-10.153 13.449-10.153zm-18.343 14.058c-.282.606-.479 1.258-.577 1.942h-3.08v-1.933c1.217-.053 2.437-.053 3.657-.009zm-7.657-3.058c0-.551.448-1 1-1s1 .449 1 1v5h-1c-.552 0-1-.449-1-1zm-2 3.748v.252c0 1.654 1.346 3 3 3h6.08c.488 3.387 3.401 6 6.92 6 3.757 0 6.825-2.979 6.985-6.698 1.295.862 2.015 1.806 2.015 2.698 0 2.838-6.981 6-17 6s-17-3.162-17-6c0-2.086 3.645-4.183 9-5.252zm-9 8.926c3.057 2.61 9.358 4.326 17 4.326s13.943-1.716 17-4.326v.326c0 2.838-6.981 6-17 6s-17-3.162-17-6zm0 4c3.057 2.61 9.358 4.326 17 4.326s13.943-1.716 17-4.326v8.326c0 2.838-6.981 6-17 6s-17-3.162-17-6zm0 12c3.057 2.61 9.358 4.326 17 4.326s13.943-1.716 17-4.326v.326c0 2.838-6.981 6-17 6s-17-3.162-17-6zm0 12.326v-8.326c3.057 2.61 9.358 4.326 17 4.326s13.943-1.716 17-4.326v8.326c0 .661-.392 1.332-1.124 2h-15.876c-1.654 0-3 1.346-3 3 0 .317.063.617.154.904-8.465-.529-14.154-3.344-14.154-5.904z"/><path d="m53 47h2v2h-2z"/></svg>