<svg id="Layer_5" enable-background="new 0 0 64 64" height="512" viewBox="0 0 64 64" width="512" xmlns="http://www.w3.org/2000/svg"><path d="m63 26.729c0-3.3-1-6.473-2.892-9.175l-10.715-15.308c-.546-.78-1.441-1.246-2.393-1.246s-1.847.466-2.393 1.246l-6.128 8.754h-17.479c-1.654 0-3 1.346-3 3s1.346 3 3 3v2.11c-11.287.786-20 8.054-20 16.89 0 6.194 4.321 11.846 11.297 14.848 2.756 7.098 9.643 12.152 17.703 12.152 1.177 0 2.352-.12 3.501-.334.698.218 1.446.336 2.237.336.414 0 .839-.031 1.272-.093 2.328-.333 4.635-1.541 6.497-3.402.037-.037.07-.081.107-.119.155.175.311.35.48.519 2.022 2.021 4.569 3.08 6.879 3.08 1.663 0 3.202-.549 4.334-1.681 2.706-2.706 2.078-7.736-1.4-11.214-.416-.416-.856-.789-1.31-1.123 5.787-.312 10.403-5.105 10.403-10.969v-1h-3.539c2.259-2.822 3.539-6.351 3.539-10zm-43-12.729c0-.551.449-1 1-1h18c.551 0 1 .449 1 1s-.449 1-1 1h-18c-.551 0-1-.449-1-1zm17 3v2h-8v2h8v2h-6v2h6v2h-8v2h8.925c4.277 2.268 7.428 6.31 8.571 10.976-.431.402-.824.843-1.187 1.309-2.516-1.439-6.628-2.285-11.309-2.285-5.278 0-11.257 2.15-15.013 4.099-1.891-1.107-3.723-2.117-5.563-2.87 1.109-4.913 4.354-9.118 9.022-11.441l.554-.276v-11.512zm1.99 28.091c-2.328.333-4.635 1.541-6.497 3.402-.12.12-.229.246-.343.369-3.915-.501-7.566-2.481-11.097-4.551 3.54-1.669 8.525-3.311 12.947-3.311 4.178 0 8.04.762 10.23 1.974-.43.829-.753 1.72-.96 2.656-1.245-.569-2.705-.763-4.28-.539zm-31.99-9.091c0-5.443 6.192-10.173 14-10.882v2.167c-5.936 3.194-9.679 9.172-9.971 15.871-2.573-2.016-4.029-4.55-4.029-7.156zm-4 0c0-7.743 7.829-14.127 18-14.887v2.001c-8.904.749-16 6.378-16 12.886 0 3.663 2.221 7.144 6.083 9.638.077.891.218 1.762.414 2.614-5.288-2.797-8.497-7.347-8.497-12.252zm10 8c0-.587.04-1.166.098-1.741 1.917.832 3.877 1.97 5.935 3.185 3.686 2.176 7.486 4.412 11.709 5.229-.867 1.358-1.438 2.833-1.651 4.318-.337 2.361.262 4.469 1.675 5.972-.255.01-.51.037-.766.037-9.374 0-17-7.626-17-17zm29.093 14.093c-1.558 1.558-3.463 2.564-5.366 2.837-1.795.257-3.366-.184-4.419-1.237-1.054-1.054-1.493-2.624-1.237-4.42.272-1.902 1.279-3.808 2.836-5.365 1.558-1.558 3.463-2.564 5.366-2.837 1.644-.236 3.095.121 4.138.992l.024.024c-.26.182-.512.378-.741.608-2.184 2.184-2.193 5.88-.289 9.053-.106.113-.203.236-.312.345zm11.8 1.8c-1.926 1.925-5.688 1.297-8.385-1.399-2.698-2.698-3.326-6.46-1.4-8.386.73-.73 1.726-1.085 2.825-1.107h.253c1.741.046 3.709.91 5.307 2.507 2.697 2.697 3.325 6.459 1.4 8.385zm-1.893-12.893h-6.805c-.032-.033-.056-.074-.088-.106-.011-.011-.023-.019-.034-.03.561-4.446 4.394-7.864 8.927-7.864h6.945c-.499 4.494-4.32 8-8.945 8zm9-20c0 3.758-1.541 7.375-4.223 10h-2.777c-2.107 0-4.087.608-5.774 1.655-1.423-4.814-4.772-8.963-9.226-11.37v-10.285c1.654 0 3-1.346 3-3 0-1.068-.565-2-1.407-2.532l5.653-8.075c.344-.491 1.164-.491 1.508 0l10.715 15.307c1.656 2.365 2.531 5.141 2.531 8.029z"/><path d="m36.058 52-.737-.678c-1.235 1.235-2.062 2.778-2.27 4.232-.096.67-.137 1.915.67 2.723.472.472 1.176.722 2.037.722.108 0 .212-.004.307-.01l-.13-1.996c-.055.004-.115.006-.177.006-.384 0-.571-.085-.622-.136-.091-.092-.185-.47-.105-1.024.148-1.036.769-2.167 1.705-3.103l-.681-.732.694.72z"/><path d="m39.557 49.051c-.66.094-1.334.312-2.004.646l.896 1.789c.476-.239.944-.392 1.395-.456.061-.009.14-.018.231-.024l-.147-1.994c-.149.01-.278.025-.371.039z"/><path d="m47.035 51v2c.597 0 1.644.35 2.63 1.336 1.122 1.122 1.356 2.213 1.345 2.663-.015.001-.03.001-.045.001v2c.452 0 1.081-.09 1.512-.521.53-.528.671-1.463.388-2.564-.19-.74-.655-1.86-1.787-2.992-1.203-1.204-2.714-1.923-4.043-1.923z"/><path d="m51.917 14.779h2v2.442h-2z" transform="matrix(.819 -.574 .574 .819 .393 33.247)"/><path d="m55.837 18.426-1.639 1.147.994 1.419c1.183 1.691 1.808 3.674 1.808 5.737v.271c0 2.751-1.099 5.317-3.094 7.226l1.383 1.445c2.393-2.289 3.711-5.369 3.711-8.671v-.271c0-2.475-.75-4.855-2.169-6.882z"/><path d="m15.736 39.346 1.901.621c.191-.588.427-1.165.7-1.717l-1.793-.887c-.315.638-.586 1.305-.808 1.983z"/><path d="m17.627 35.517 1.648 1.133c.35-.509.739-.998 1.157-1.452l-1.472-1.354c-.48.523-.929 1.086-1.333 1.673z"/><path d="m20.519 32.376 1.266 1.549c.478-.391.988-.75 1.517-1.068l-1.031-1.714c-.611.367-1.2.782-1.752 1.233z"/><path d="m24.644 58.016c.701.268 1.422.482 2.144.64l.425-1.955c-.624-.136-1.249-.321-1.856-.554z"/><path d="m17.131 45.858-1.979.283c.654 4.573 3.332 8.528 7.347 10.851l1.002-1.73c-3.43-1.985-5.811-5.5-6.37-9.404z"/></svg>