<svg id="Layer_5" enable-background="new 0 0 64 64" height="512" viewBox="0 0 64 64" width="512" xmlns="http://www.w3.org/2000/svg"><path d="m31.854 42h.292c3.228 0 5.854-2.626 5.854-5.854 0-.904-.214-1.81-.618-2.618l-3.04-6.08c-.446-.893-1.343-1.448-2.342-1.448s-1.896.555-2.342 1.447l-3.04 6.08c-.404.809-.618 1.714-.618 2.619 0 3.228 2.626 5.854 5.854 5.854zm-3.447-7.578 3.04-6.08c.106-.211.317-.342.553-.342s.447.131.553.342l3.04 6.08c.266.532.407 1.129.407 1.724 0 2.125-1.729 3.854-3.854 3.854h-.292c-2.125 0-3.854-1.729-3.854-3.854 0-.595.141-1.192.407-1.724z"/><path d="m56 55h4c1.654 0 3-1.346 3-3s-1.346-3-3-3h-9v-1c0-1.159-.668-2.156-1.633-2.655l-.233-.933c-.753-3.009-1.134-6.107-1.134-9.21v-.878c0-4.089.656-8.129 1.949-12.008l.051-.154v-.162c0-6.134-4.276-11.277-10-12.637v-5.363c0-1.654-1.346-3-3-3h-10c-1.654 0-3 1.346-3 3v5.363c-5.724 1.36-10 6.503-10 12.637v.162l.051.154c1.293 3.879 1.949 7.919 1.949 12.008v.878c0 3.103-.381 6.201-1.134 9.21l-.233.933c-.965.499-1.633 1.496-1.633 2.655v1h-9c-1.654 0-3 1.346-3 3s1.346 3 3 3h4c.551 0 1 .448 1 1s-.449 1-1 1h-2c-1.654 0-3 1.346-3 3s1.346 3 3 3h13 2 22 2 13c1.654 0 3-1.346 3-3s-1.346-3-3-3h-2c-.551 0-1-.448-1-1s.449-1 1-1zm-7-1v2c0 .552-.449 1-1 1h-32c-.551 0-1-.448-1-1v-2c0-.552.449-1 1-1h32c.551 0 1 .448 1 1zm-34-4v-2c0-.552.449-1 1-1h32c.551 0 1 .448 1 1v2c0 .552-.449 1-1 1h-32c-.551 0-1-.448-1-1zm1.356-27h10.862c-4.242 1.852-7.218 6.083-7.218 11s2.976 9.148 7.218 11h-10.437l.026-.104c.792-3.166 1.193-6.427 1.193-9.694v-.878c0-3.844-.556-7.646-1.644-11.324zm15.644 1c5.514 0 10 4.486 10 10s-4.486 10-10 10-10-4.486-10-10 4.486-10 10-10zm-6-20c0-.551.449-1 1-1h10c.551 0 1 .449 1 1v5.051c-.331-.026-.662-.051-1-.051h-10c-.338 0-.669.025-1 .051zm1 7h10c5.727 0 10.437 4.403 10.945 10h-1.945v2h1.644c-1.088 3.678-1.644 7.48-1.644 11.324v.878c0 3.267.401 6.528 1.193 9.694l.026.104h-10.437c4.242-1.852 7.218-6.083 7.218-11s-2.976-9.148-7.219-11h7.219v-2h-27.945c.508-5.597 5.218-10 10.945-10zm-22 49c0-.552.449-1 1-1h2c1.654 0 3-1.346 3-3s-1.346-3-3-3h-4c-.551 0-1-.448-1-1s.449-1 1-1h9.184c.133.374.335.711.596 1-.48.532-.78 1.229-.78 2v2c0 1.654 1.346 3 3 3v1c0 .352.072.686.184 1h-10.184c-.551 0-1-.448-1-1zm38 1h-22-2c-.551 0-1-.448-1-1v-1h28v1c0 .552-.449 1-1 1zm13-2h2c.551 0 1 .448 1 1s-.449 1-1 1h-10.184c.112-.314.184-.648.184-1v-1c1.654 0 3-1.346 3-3v-2c0-.771-.301-1.468-.78-2 .26-.289.463-.626.596-1h9.184c.551 0 1 .448 1 1s-.449 1-1 1h-4c-1.654 0-3 1.346-3 3s1.346 3 3 3z"/></svg>