<svg id="Layer_5" enable-background="new 0 0 64 64" height="512" viewBox="0 0 64 64" width="512" xmlns="http://www.w3.org/2000/svg"><path d="m22 49c.552 0 1 .448 1 1h2c0-1.654-1.346-3-3-3v-2h-2v2h-3v3c0 1.654 1.346 3 3 3h2c.552 0 1 .448 1 1v1h-3c-.552 0-1-.448-1-1h-2c0 1.654 1.346 3 3 3v2h2v-2h3v-3c0-1.654-1.346-3-3-3h-2c-.552 0-1-.448-1-1v-1z"/><path d="m20 29h2v2h-2z"/><path d="m24 29h2v2h-2z"/><path d="m16 29h2v2h-2z"/><path d="m61.6 53.2c.903-1.203 1.4-2.694 1.4-4.2v-13c0-1.654-1.346-3-3-3-.395 0-.77.081-1.116.22-.345-1.275-1.501-2.22-2.884-2.22-.771 0-1.468.301-2 .78-.532-.48-1.229-.78-2-.78-.352 0-.686.072-1 .184v-8.605c4.68-1.326 8-5.649 8-10.579 0-6.065-4.935-11-11-11s-11 4.935-11 11c0 4.933 3.319 9.254 8 10.58v18.434c0 .455-.105.911-.306 1.319l-.839-4.194c-.352-1.76-1.422-3.221-2.855-4.142v-7.782l-3.673-.899c-.354-1.235-.847-2.425-1.472-3.548l1.963-3.234-5.353-5.353-3.233 1.962c-1.124-.624-2.312-1.117-3.549-1.47l-.898-3.673h-7.57l-.898 3.674c-1.236.354-2.425.847-3.549 1.47l-3.233-1.962-5.353 5.353 1.963 3.234c-.625 1.124-1.117 2.313-1.472 3.548l-3.673.898v7.57l3.673.898c.354 1.235.847 2.425 1.472 3.549l-1.963 3.233 5.353 5.353 3.035-1.842-.63.91c-1.269 1.832-1.94 3.979-1.94 6.209 0 6.012 4.893 10.905 10.905 10.905h.189c6.013 0 10.906-4.893 10.906-10.905 0-2.229-.671-4.377-1.939-6.208l-.63-.91 3.022 1.834 4.929-4.745.479 3.825c.114.923.406 1.8.837 2.547l3.302 6.792v1.77h-2v6h22v-6h-2v-1.667zm-22.6-41.2c0-4.962 4.037-9 9-9s9 4.038 9 9c0 3.858-2.486 7.258-6.051 8.497-.184-1.078-.941-1.953-1.949-2.313v-1.184h3v-3c0-1.654-1.346-3-3-3h-2c-.552 0-1-.449-1-1v-1h3c.552 0 1 .449 1 1h2c0-1.654-1.346-3-3-3v-2h-2v2h-3v3c0 1.654 1.346 3 3 3h2c.552 0 1 .449 1 1v1h-3c-.552 0-1-.449-1-1h-2c0 1.654 1.346 3 3 3v1.184c-1.008.359-1.765 1.234-1.949 2.312-3.566-1.238-6.051-4.636-6.051-8.496zm-17.905 49h-.189c-4.911 0-8.906-3.995-8.906-8.905 0-1.821.548-3.573 1.584-5.069l6.669-9.634c.34-.49 1.154-.49 1.494 0l6.669 9.634c1.036 1.495 1.584 3.247 1.584 5.069 0 4.91-3.995 8.905-8.905 8.905zm3.632-22.819c3.16-1.442 5.273-4.634 5.273-8.181 0-4.962-4.037-9-9-9s-9 4.038-9 9c0 3.547 2.113 6.739 5.273 8.181l-1.156 1.671c-3.74-1.848-6.117-5.634-6.117-9.852 0-6.065 4.935-11 11-11s11 4.935 11 11c0 4.218-2.377 8.004-6.117 9.852zm-6.119-1.928-.162.234c-2.643-1.042-4.446-3.605-4.446-6.487 0-3.86 3.141-7 7-7s7 3.14 7 7c0 2.882-1.803 5.445-4.447 6.486l-.162-.234c-.543-.783-1.437-1.252-2.391-1.252s-1.848.469-2.392 1.253zm13.567 8.05-2.93-1.778-.519.313c-.174.105-.36.209-.559.315l-1.139-1.646c4.271-2.23 6.972-6.62 6.972-11.507 0-7.168-5.832-13-13-13s-13 5.832-13 13c0 4.887 2.701 9.277 6.971 11.507l-1.139 1.646c-.198-.106-.385-.21-.559-.315l-.519-.313-2.916 1.771-3.134-3.134 1.771-2.915-.312-.519c-.772-1.28-1.347-2.665-1.706-4.115l-.146-.588-3.311-.81v-4.43l3.312-.81.146-.587c.359-1.45.934-2.835 1.706-4.115l.312-.518-1.771-2.916 3.134-3.133 2.916 1.77.518-.313c1.279-.772 2.664-1.346 4.115-1.705l.588-.146.809-3.312h4.43l.81 3.312.588.146c1.451.359 2.836.933 4.115 1.705l.518.313 2.916-1.77 3.134 3.133-1.771 2.916.312.518c.772 1.28 1.347 2.665 1.706 4.115l.146.587 3.311.81v5.364c-.475-.112-.961-.191-1.465-.191-1.397 0-2.535 1.138-2.535 2.535 0 .502.147.988.426 1.406l1.029 1.544c.246.369.429.778.555 1.203zm27.825 16.697h-18v-2h18zm-16-4v-2.23l-3.536-7.267c-.33-.575-.538-1.2-.62-1.859l-.692-5.534c-.123-.987-.479-1.947-1.032-2.775l-1.03-1.545c-.059-.088-.09-.191-.09-.298 0-.295.24-.534.535-.534 2.111 0 3.944 1.503 4.359 3.573l1.286 6.427h2.438l.854-1.709c.345-.69.528-1.464.528-2.235v-20.014c0-.551.448-1 1-1s1 .449 1 1v13 4h2v-4c0-.552.448-1 1-1s1 .448 1 1v4h2v-4c0-.552.448-1 1-1s1 .448 1 1v2 2h2v-2c0-.552.448-1 1-1s1 .448 1 1v13c0 1.075-.355 2.141-1 3l-2 2.667v2.333z"/></svg>