<svg id="Layer_5" enable-background="new 0 0 64 64" height="512" viewBox="0 0 64 64" width="512" xmlns="http://www.w3.org/2000/svg"><path d="m50 44c3.309 0 6-2.691 6-6.049 0-.757-.141-1.498-.418-2.203l-3.258-8.252c-.413-.909-1.325-1.496-2.324-1.496s-1.911.587-2.324 1.496l-3.676 9.314v1.19c0 3.309 2.691 6 6 6zm-4-6.81 3.505-8.884c.188-.379.842-.325.979-.029l3.237 8.204c.185.471.279.965.279 1.519 0 2.206-1.794 4-4 4s-4-1.794-4-4z"/><path d="m5 53h2v2h-2z"/><path d="m5 57h2v2h-2z"/><path d="m5 49h2v2h-2z"/><path d="m63 35c0-7.168-5.832-13-13-13-1.081 0-2.126.147-3.131.397l-8.181-21.397h-17.376l-13 34h-7.312v28h18v-28h-8.547l8.412-22h8.135v6h-6v6h4v22.877l-1.78 7.123h-2.22v8h18v-8h-2.22l-1.78-7.123v-22.877h4v-6h-6v-6h8.135l3.83 10.016c-4.675 1.971-7.965 6.6-7.965 11.984 0 3.675 1.54 6.992 4 9.359v18.641h18v-18.641c2.46-2.367 4-5.684 4-9.359zm-60 26v-20h14v20zm14-22h-14v-2h14zm2.63-28 3.059-8h4.311v8zm13.37 36h-6.029l.023-18h6.006zm4 14h-14v-4h14zm-11.72-6 1.5-6h6.466l1.478 6zm7.72-28h-6.004l.003-2h6.001zm4-4h-14v-2h14zm-8-4v-16h2v16zm4-8v-8h4.312l3.059 8zm6 24c0-6.065 4.935-11 11-11s11 4.935 11 11-4.935 11-11 11-11-4.935-11-11zm18 26h-14v-15.063c2.023 1.3 4.422 2.063 7 2.063s4.977-.764 7-2.063z"/><path d="m53 49h2v2h-2z"/><path d="m53 53h2v2h-2z"/><path d="m53 57h2v2h-2z"/></svg>