<svg id="Layer_5" enable-background="new 0 0 64 64" height="512" viewBox="0 0 64 64" width="512" xmlns="http://www.w3.org/2000/svg"><path d="m9.862 31h2.441v2h-2.441z" transform="matrix(.573 -.819 .819 .573 -21.491 22.736)"/><path d="m7 43v-.271c0-2.062.625-4.046 1.808-5.735l.994-1.42-1.639-1.146-.994 1.42c-1.419 2.026-2.169 4.406-2.169 6.881v.271c0 6.617 5.383 12 12 12v-2c-5.514 0-10-4.486-10-10z"/><path d="m46 50h8c.944 0 1.777-.447 2.328-1.131 4.483-.901 6.672-2.169 6.672-3.869v-34c0-3.947-12.571-5-20-5-1.351 0-2.686.038-4 .097v-2.097c0-1.654-1.346-3-3-3h-4c-1.654 0-3 1.346-3 3v3.281c-4.017.892-6 2.108-6 3.719v12.399l-3.607-5.153c-.546-.78-1.441-1.246-2.393-1.246s-1.847.466-2.393 1.246l-10.714 15.307c-1.893 2.702-2.893 5.875-2.893 9.176v.271c0 6.02 3.345 11.269 8.271 14h-5.271c-1.654 0-3 1.346-3 3s1.346 3 3 3h42c1.654 0 3-1.346 3-3v-1c0-.552.448-1 1-1h10c1.654 0 3-1.346 3-3s-1.346-3-3-3h-14c-.552 0-1-.448-1-1s.448-1 1-1zm10.968-3.316c-.161-1.504-1.422-2.684-2.968-2.684h-21.051c.021-.332.051-.662.051-1v-.271c0-.419-.017-.836-.049-1.25 2.886.345 6.257.521 10.049.521 7.99 0 14.031-.782 18.003-2.326l.001 5.293c-.003.01-.414.863-4.036 1.717zm4.033-29.085c-3.67 1.592-9.717 2.401-18.001 2.401-8.283 0-14.33-.809-18-2.401v-4.196c3.845 1.995 12.388 2.597 18 2.597s14.156-.602 18-2.598zm-36.001 2.155c3.97 1.49 10.009 2.246 18 2.246s14.031-.756 18.001-2.246v1.844c-3.67 1.593-9.717 2.402-18.001 2.402-8.283 0-14.33-.809-18-2.401zm36.003 17.754c-3.665 1.653-9.712 2.492-18.003 2.492-3.957 0-7.43-.196-10.351-.577-.15-.713-.35-1.411-.596-2.095 3.092.444 6.757.672 10.947.672 7.984 0 14.025-.82 18.003-2.438zm-30.003-33.508c0-.552.448-1 1-1h4c.552 0 1 .448 1 1v4c0 .552-.448 1-1 1h-4c-.552 0-1-.448-1-1zm-1.715 5.257c.478 1.026 1.511 1.743 2.715 1.743h4c1.621 0 2.937-1.294 2.99-2.902 1.316-.059 2.656-.098 4.01-.098 11.126 0 17.635 1.974 18.004 2.968-.369 1.058-6.878 3.032-18.004 3.032-11.107 0-17.61-1.966-18-2.962v-.013c.036-.071.564-.926 4.285-1.768zm-4.285 14.497c3.97 1.49 10.009 2.246 18 2.246 7.992 0 14.031-.756 18.001-2.246l.001 9.624c-3.659 1.739-9.705 2.622-18.002 2.622-4.688 0-8.688-.288-11.92-.851-.295-.546-.612-1.082-.972-1.596l-5.108-7.296zm-22 19.246v-.271c0-2.888.875-5.664 2.531-8.029l10.715-15.307c.172-.247.454-.393.754-.393s.582.146.754.393l10.715 15.307c1.656 2.364 2.531 5.141 2.531 8.029v.271c0 7.72-6.28 14-14 14s-14-6.28-14-14zm24.547 12h8.453c.552 0 1 .448 1 1s-.448 1-1 1h-11.271c1.014-.562 1.954-1.239 2.818-2zm18.453-1h14c.552 0 1 .448 1 1s-.448 1-1 1h-10c-1.654 0-3 1.346-3 3v1c0 .552-.448 1-1 1h-42c-.552 0-1-.448-1-1s.448-1 1-1h32c1.654 0 3-1.346 3-3s-1.346-3-3-3h-6.53c1.606-1.998 2.74-4.386 3.238-7h21.292c.552 0 1 .448 1 1s-.448 1-1 1h-8c-1.654 0-3 1.346-3 3s1.346 3 3 3z"/></svg>