<svg id="Layer_5" enable-background="new 0 0 64 64" height="512" viewBox="0 0 64 64" width="512" xmlns="http://www.w3.org/2000/svg"><path d="m57.776 19.521-1.756.957.735 1.349c.161.293.245.624.245.958v.215c0 1.103-.897 2-2 2v2c2.206 0 4-1.794 4-4v-.215c0-.668-.169-1.33-.488-1.915z"/><path d="m62.023 18.954-4.667-8.555c-.47-.863-1.373-1.399-2.356-1.399s-1.886.536-2.356 1.399l-4.667 8.555c-.639 1.172-.977 2.497-.977 3.831v.215c0 4.411 3.589 8 8 8s8-3.589 8-8v-.215c0-1.334-.338-2.659-.977-3.831zm-1.023 4.046c0 3.309-2.691 6-6 6s-6-2.691-6-6v-.215c0-1.001.253-1.995.732-2.874l4.667-8.555c.121-.219.35-.356.601-.356s.48.137.601.356l4.667 8.555c.479.879.732 1.873.732 2.874z"/><path d="m56 33h2v2h-2z"/><path d="m56 37h2v2h-2z"/><path d="m60 46h-1c-.552 0-1-.448-1-1v-4h-2v4c0 1.654 1.346 3 3 3h1c.552 0 1 .448 1 1s-.448 1-1 1h-7c-1.654 0-3 1.346-3 3s1.346 3 3 3h4c.552 0 1 .448 1 1s-.448 1-1 1h-14v-10h8c1.654 0 3-1.346 3-3s-1.346-3-3-3h-3c-.552 0-1-.448-1-1s.448-1 1-1h3c1.654 0 3-1.346 3-3v-4h-2v4c0 .552-.448 1-1 1h-3c-1.654 0-3 1.346-3 3s1.346 3 3 3h3c.552 0 1 .448 1 1s-.448 1-1 1h-8v-12.414l-6-6v-3.586c0-1.433-1.011-2.63-2.356-2.926l11.822-14.074h9.534v-6h-10.439c-1.259 0-2.461.469-3.386 1.32l-20.32 18.694c-1.062.052-1.972.655-2.463 1.532l-.392-.782c-.854-1.705-2.566-2.764-4.472-2.764h-10.528c-1.654 0-3 1.346-3 3s1.346 3 3 3h9.382l1 2h-8.382c-2.757 0-5 2.243-5 5v16c0 2.757 2.243 5 5 5s5-2.243 5-5v-19h6.586l-4.586 4.586v25.414c0 3.888 13.465 4 15 4 1.391 0 12.572-.092 14.663-3h14.337c1.654 0 3-1.346 3-3s-1.346-3-3-3h-4c-.552 0-1-.448-1-1s.448-1 1-1h7c1.654 0 3-1.346 3-3s-1.346-3-3-3zm-51 2c0 1.654-1.346 3-3 3s-3-1.346-3-3v-16c0-1.654 1.346-3 3-3h3zm11.414-19h15.172l4 4h-23.172zm20.586 6v4h-26v-4zm0 6v14h-26v-14zm2.529-37.208c.555-.511 1.277-.792 2.032-.792h8.439v2h-7.534c-.591 0-1.148.26-1.531.713l-12.842 15.287h-7.269zm-22.529 20.208c0-.552.448-1 1-1h12c.552 0 1 .448 1 1v3h-13.382l-.618-1.236zm-5.829.106c-.34-.682-1.025-1.106-1.789-1.106h-9.382c-.552 0-1-.448-1-1s.448-1 1-1h10.528c1.143 0 2.171.636 2.683 1.658l1.789 3.578v.764h-2.382zm12.829 36.894c-7.685 0-12.402-1.318-13-2.088v-1.912h26v1.912c-.598.77-5.315 2.088-13 2.088z"/><path d="m28 53c2.206 0 4-1.794 4-4 0-.858-.284-1.71-.8-2.399l-3.2-4.268-3.201 4.269c-.515.688-.799 1.54-.799 2.398 0 2.206 1.794 4 4 4zm-1.601-5.2 1.601-2.133 1.6 2.132c.257.346.4.771.4 1.201 0 1.103-.897 2-2 2s-2-.897-2-2c0-.43.143-.855.399-1.2z"/><path d="m17 51h2v2h-2z"/><path d="m17 43h2v2h-2z"/><path d="m17 47h2v2h-2z"/><path d="m37 47h2v2h-2z"/><path d="m37 51h2v2h-2z"/><path d="m37 43h2v2h-2z"/></svg>