<svg id="Layer_5" enable-background="new 0 0 64 64" height="512" viewBox="0 0 64 64" width="512" xmlns="http://www.w3.org/2000/svg"><path d="m54.392 36.253c-.544-.784-1.438-1.253-2.392-1.253s-1.848.469-2.392 1.253l-6.669 9.634c-1.268 1.831-1.939 3.978-1.939 6.208 0 3.677 1.835 6.929 4.632 8.905h-6.632v-28h-8v28h-4v-22h-8v22h-4v-20h-8v20h-4v-18.595l11-10.99 6 6 17-17 6 6 13-13 4.707 4.707 2.472-17.3-17.3 2.472 4.707 4.706-7.586 7.586-6-6-17 17-6-6-11 11v-6.586h6v-2h-6v-2h4v-2h-4v-2h6v-2h-6v-2h4v-2h-4v-2h6v-2h-6v-2h4v-2h-4v-2h-2v62h50.905.095.095c6.012 0 10.905-4.893 10.905-10.905 0-2.229-.671-4.377-1.939-6.208zm-40.392-12.839 6 6 17-17 6 6 10.414-10.414-3.293-3.293 10.7-1.528-1.528 10.7-3.293-3.293-13 13-6-6-17 17-6-6-11 10.991v-5.163zm19 11.586h4v26h-4zm-12 6h4v20h-4zm-12 2h4v18h-4zm43.095 18h-.095-.095c-4.91 0-8.905-3.995-8.905-8.905 0-1.821.548-3.573 1.584-5.069l6.669-9.634c.34-.49 1.154-.49 1.494 0l6.669 9.634c1.036 1.495 1.584 3.247 1.584 5.069 0 4.91-3.995 8.905-8.905 8.905z"/><path d="m53 49c.552 0 1 .448 1 1h2c0-1.654-1.346-3-3-3v-2h-2v2h-3v3c0 1.654 1.346 3 3 3h2c.552 0 1 .448 1 1v1h-3c-.552 0-1-.448-1-1h-2c0 1.654 1.346 3 3 3v2h2v-2h3v-3c0-1.654-1.346-3-3-3h-2c-.552 0-1-.448-1-1v-1z"/></svg>