<svg id="Layer_5" enable-background="new 0 0 64 64" height="512" viewBox="0 0 64 64" width="512" xmlns="http://www.w3.org/2000/svg"><path d="m52.662 61c-3.611 0-5.573-1.519-7.005-2.628-1.144-.885-1.774-1.372-3.333-1.372-1.558 0-2.187.487-3.329 1.372-1.432 1.109-3.394 2.628-7.002 2.628-3.609 0-5.571-1.519-7.003-2.628-1.143-.885-1.773-1.372-3.331-1.372s-2.187.487-3.329 1.372c-1.432 1.109-3.393 2.628-7.002 2.628-3.608 0-5.569-1.52-7.001-2.629-1.142-.884-1.771-1.371-3.327-1.371v2c.872 0 1.06.146 2.103.953 1.471 1.14 3.933 3.047 8.225 3.047 4.293 0 6.755-1.907 8.227-3.047 1.042-.807 1.23-.953 2.104-.953.875 0 1.062.146 2.106.954 1.471 1.139 3.935 3.046 8.228 3.046 4.292 0 6.755-1.907 8.228-3.047 1.041-.807 1.229-.953 2.103-.953.876 0 1.064.146 2.109.954 1.471 1.139 3.935 3.046 8.229 3.046 4.293 0 6.757-1.906 8.229-3.046 1.045-.808 1.233-.954 2.109-.954v-2c-1.56 0-2.19.487-3.333 1.372-1.433 1.109-3.395 2.628-7.005 2.628z"/><path d="m52.662 57c-2.243 0-3.315-.83-4.558-1.791-1.337-1.035-2.854-2.209-5.78-2.209-2.925 0-4.44 1.174-5.778 2.209-1.241.961-2.313 1.791-4.553 1.791-2.242 0-3.313-.83-4.555-1.791-1.338-1.035-2.854-2.209-5.779-2.209s-4.44 1.174-5.778 2.209c-1.241.961-2.312 1.791-4.553 1.791-2.24 0-3.312-.83-4.552-1.791-1.337-1.035-2.852-2.209-5.776-2.209v2c2.24 0 3.312.83 4.552 1.791 1.337 1.035 2.852 2.209 5.776 2.209s4.44-1.174 5.777-2.209c1.241-.961 2.313-1.791 4.554-1.791 2.242 0 3.313.83 4.555 1.791 1.337 1.035 2.853 2.209 5.779 2.209 2.925 0 4.44-1.174 5.778-2.209 1.24-.961 2.312-1.791 4.553-1.791 2.243 0 3.315.83 4.557 1.791 1.338 1.035 2.855 2.209 5.781 2.209s4.443-1.174 5.781-2.209c1.242-.961 2.314-1.791 4.557-1.791v-2c-2.926 0-4.443 1.174-5.781 2.209-1.242.961-2.314 1.791-4.557 1.791z"/><path d="m56.38 43h3.62c1.654 0 3-1.346 3-3v-4c0-1.302-.839-2.402-2-2.816v-22.184h-4v-10h-2v10h-4v-4h-2v4h-4v8h-2.105l-2-18h-9.79l-2 18h-2.105v14h-2v-6h-2.465l-12-18h-9.535v2 .248 13.752h2v-9.974l6.373 12.038c-2.459.312-4.373 2.394-4.373 4.936v1h-1c-1.654 0-3 1.346-3 3v4c0 1.654 1.346 3 3 3h3.62c2.781 2.347 4.38 5.75 4.38 9.403v.532c-.188.047-.394.065-.672.065-.872 0-1.06-.146-2.103-.953-1.471-1.14-3.934-3.047-8.225-3.047v2c3.607 0 5.568 1.519 7.001 2.629 1.142.884 1.771 1.371 3.327 1.371 1.557 0 2.186-.487 3.329-1.372 1.432-1.109 3.393-2.628 7.002-2.628s5.571 1.519 7.003 2.628c1.143.885 1.772 1.372 3.331 1.372 1.558 0 2.187-.487 3.329-1.372 1.431-1.109 3.393-2.628 7.002-2.628 3.61 0 5.572 1.519 7.005 2.628 1.143.885 1.773 1.372 3.333 1.372s2.19-.487 3.333-1.372c1.433-1.109 3.395-2.628 7.005-2.628v-2c-4.293 0-6.757 1.906-8.229 3.046-1.044.808-1.232.954-2.109.954-.273 0-.476-.018-.662-.061v-.535c0-3.654 1.599-7.057 4.38-9.404zm-9.38-30h12v20h-8v-14h-4zm-14.549-6h7.099l.011.102-3.561 1.78-3.561-1.78zm7.977 7.904.258 2.32-2.449-1.224zm-4.428-.022-3.764-1.882 3.764-1.882 3.764 1.882zm2.237-4.882 1.56-.78.183 1.651zm-4.474 0-1.743.872.183-1.651zm.001 6-2.45 1.225.258-2.321zm2.236 1.118 3.765 1.882h-7.528zm3.105-14.118.222 2h-6.654l.222-2zm-10.105 18h20v12h-2v-7c0-1.654-1.346-3-3-3s-3 1.346-3 3v7h-4v-7c0-1.654-1.346-3-3-3s-3 1.346-3 3v7h-2zm16 12h-2v-7c0-.552.449-1 1-1s1 .448 1 1zm-10 0h-2v-7c0-.552.449-1 1-1s1 .448 1 1zm-24.876-21.011 4.008 6.011h-7.014zm5.341 8.011.307.461-4.325 6.247-3.551-6.708zm1.501 2.251 3.166 4.749h-6.454zm-8.584-11.251-2.55 5.1-2.7-5.1zm-1.382 21c0-1.654 1.346-3 3-3h13v4h-16zm-4 8v-4c0-.552.449-1 1-1h56c.551 0 1 .448 1 1v4c0 .552-.449 1-1 1h-56c-.551 0-1-.448-1-1zm39.324 9c-4.292 0-6.755 1.907-8.228 3.047-1.042.807-1.23.953-2.103.953-.875 0-1.062-.146-2.106-.954-1.472-1.139-3.935-3.046-8.228-3.046-3.822 0-6.188 1.509-7.701 2.645-.169-3.227-1.402-6.247-3.501-8.645h43.088c-2.102 2.401-3.335 5.425-3.502 8.656-1.513-1.137-3.882-2.656-7.719-2.656z"/><path d="m49 15h8v2h-8z"/><path d="m53 19h4v2h-4z"/><path d="m53 23h4v2h-4z"/><path d="m53 27h4v2h-4z"/><path d="m5 37h2v2h-2z"/><path d="m9 37h2v2h-2z"/><path d="m13 37h2v2h-2z"/></svg>