<svg id="Layer_5" enable-background="new 0 0 64 64" height="512" viewBox="0 0 64 64" width="512" xmlns="http://www.w3.org/2000/svg"><path d="m62.348 55.593-4.348-7.609-4.348 7.608c-.426.747-.652 1.596-.652 2.457 0 2.73 2.221 4.951 5.049 4.951 2.73 0 4.951-2.221 4.951-4.951 0-.861-.226-1.71-.652-2.456zm-4.397 5.407c-1.627 0-2.951-1.324-2.951-2.951 0-.513.134-1.02.389-1.464l2.611-4.569 2.611 4.569c.255.444.389.951.389 1.464 0 1.627-1.324 2.951-3.049 2.951z"/><path d="m53.569 46.079c.572-.685 1.411-1.079 2.305-1.079h3.126v-6h-3.501c-1.84 0-3.611.554-5.123 1.601l-10.688 7.399h-.273l-.562-.562c7.524-4.512 12.147-12.597 12.147-21.438 0-13.785-11.215-25-25-25s-25 11.215-25 25c0 5.882 2.083 11.543 5.847 16.036-.531.764-.847 1.688-.847 2.687 0 1.045.354 2.074.995 2.899l5.015 6.448c.955 1.227 2.393 1.93 3.947 1.93h1.043c0 1.506.498 2.997 1.4 4.199 1.314 1.754 3.408 2.801 5.6 2.801h12.19c2.083 0 4.043-.918 5.377-2.519zm-27.569-43.079c12.682 0 23 10.317 23 23 0 8.366-4.502 15.993-11.778 20.067-.777-.487-1.639-.814-2.548-.965 7.259-3.309 12.326-10.618 12.326-19.102 0-11.579-9.42-21-21-21s-21 9.421-21 21c0 5.281 1.929 10.216 5.383 14.034-.751.055-1.45.279-2.063.645-3.424-4.121-5.32-9.299-5.32-14.679 0-12.683 10.318-23 23-23zm-8.658 39.553-2.786-1.393c-4.281-3.236-6.928-7.975-7.453-13.223l7.594 5.063h22.605l7.599-5.066c-.87 8.575-7.473 15.46-15.901 16.805v-1.739h1c1.654 0 3-1.346 3-3s-1.346-3-3-3h-4c-1.654 0-3 1.346-3 3s1.346 3 3 3h1v1.949c-.333.018-.662.051-1 .051h-2c-1.958 0-3.728.81-5 2.111v-1.874c0-1.144-.635-2.173-1.658-2.684zm4.241-11.553-5.525-7.534c-.086-.117-.074-.277.029-.38.102-.104.262-.115.38-.029l10.679 7.832c.046.034.087.074.13.111zm8.092 0c-.204-.488-.492-.938-.873-1.319-.147-.147-.307-.284-.474-.406l-10.678-7.832c-.917-.673-2.17-.577-2.977.229-.806.806-.902 2.058-.228 2.978l4.658 6.35h-3.8l-6-4h1.697v-1c0-8.271 6.729-15 15-15s15 6.729 15 15v1h1.697l-6 4zm13.296-6c-.138-2.368-.775-4.599-1.787-6.611l1.732-1c1.179 2.307 1.891 4.882 2.035 7.611zm-2.795-8.34c-1.27-1.922-2.909-3.576-4.831-4.847l.999-1.73c2.223 1.45 4.122 3.349 5.572 5.572zm-6.563-5.847c-2.01-1.012-4.247-1.626-6.613-1.764v-1.998c2.729.143 5.304.855 7.611 2.035zm-8.613-1.764c-2.366.139-4.603.752-6.613 1.764l-.998-1.728c2.307-1.179 4.882-1.891 7.611-2.034zm-9.344 1.035.999 1.73c-1.922 1.27-3.561 2.925-4.831 4.847l-1.739-1.004c1.449-2.224 3.348-4.123 5.571-5.573zm-6.571 7.305 1.732 1c-1.013 2.012-1.65 4.243-1.788 6.611h-1.978c.143-2.729.855-5.304 2.034-7.611zm16.915 23.611c-.551 0-1-.448-1-1s.449-1 1-1h4c.551 0 1 .448 1 1s-.449 1-1 1zm-10.043 13c-.918 0-1.804-.433-2.368-1.158l-5.015-6.448c-.37-.475-.574-1.069-.574-1.671 0-1.501 1.221-2.723 2.723-2.723h.398c.42 0 .842.1 1.218.287l4.108 2.055c.341.171.553.513.553.894v6.764 2zm36.076-9.201-12.002 14.401c-.953 1.144-2.353 1.8-3.841 1.8h-12.19c-1.566 0-3.061-.748-4-2.001-.645-.858-1-1.924-1-2.999v-4c0-2.757 2.243-5 5-5h9.515c1.336 0 2.592.521 3.536 1.465l1.535 1.535h1.727l11.202-7.755c1.175-.814 2.553-1.245 3.984-1.245h1.501v2h-1.126c-1.489 0-2.889.656-3.841 1.799z"/><path d="m34 49h-10c-1.654 0-3 1.346-3 3v4c0 1.654 1.346 3 3 3h10c1.654 0 3-1.346 3-3v-4c0-1.654-1.346-3-3-3zm1 7c0 .552-.449 1-1 1h-10c-.551 0-1-.448-1-1v-4c0-.552.449-1 1-1h10c.551 0 1 .448 1 1z"/><path d="m37 26h2c0-.728-.061-1.456-.18-2.166l-1.973.332c.102.601.153 1.218.153 1.834z"/><path d="m26 13v2c4.655 0 8.824 2.947 10.374 7.333l1.886-.666c-1.832-5.184-6.759-8.667-12.26-8.667z"/></svg>