<svg id="Layer_5" enable-background="new 0 0 64 64" height="512" viewBox="0 0 64 64" width="512" xmlns="http://www.w3.org/2000/svg"><path d="m22 19c-.552 0-1-.448-1-1h-2c0 1.654 1.346 3 3 3v2h2v-2h3v-3c0-1.654-1.346-3-3-3h-2c-.552 0-1-.448-1-1v-1h3c.552 0 1 .448 1 1h2c0-1.654-1.346-3-3-3v-2h-2v2h-3v3c0 1.654 1.346 3 3 3h2c.552 0 1 .448 1 1v1z"/><path d="m62.498 16.338c-.557-.838-1.49-1.338-2.498-1.338-.592 0-1.167.174-1.664.504l-4.219 2.812c-1.952 1.301-3.117 3.479-3.117 5.825v5.044c-1.161.414-2 1.514-2 2.816v13h4v14c0 1.103-.897 2-2 2s-2-.897-2-2v-8c0-2.206-1.794-4-4-4h-4v-33.001c0-2.757-2.243-5-5-5h-6.132l-4.482-6.723c-.533-.799-1.425-1.277-2.386-1.277s-1.853.478-2.387 1.277l-4.481 6.723h-6.132c-2.757 0-5 2.243-5 5v41.101c-2.279.465-4 2.485-4 4.899v3h44v-3c0-2.414-1.721-4.434-4-4.899v-6.101h4c1.103 0 2 .897 2 2v8c0 2.206 1.794 4 4 4s4-1.794 4-4v-14h2v-5c0-1.654 1.346-3 3-3h1v-5c0-1.654-1.346-3-3-3h-1v-4.859c0-.335.167-.646.445-.832l4.219-2.812c1.376-.917 1.75-2.783.834-4.159zm-40.221-12.951c.322-.484 1.123-.484 1.445 0l5.934 8.9c.879 1.319 1.344 2.854 1.344 4.438v.275c0 4.411-3.589 8-8 8s-8-3.589-8-8v-.275c0-1.584.465-3.118 1.344-4.438zm10.558 11.613h2.165v14h-24v-14h2.165c-.099.567-.165 1.141-.165 1.725v.275c0 5.514 4.486 10 10 10s10-4.486 10-10v-.275c0-.584-.066-1.158-.165-1.725zm-22.835-4h4.798l-.118.178c-.383.575-.679 1.191-.933 1.822h-2.747c-1.103 0-2 .897-2 2v14c0 1.103.897 2 2 2h24c1.103 0 2-.897 2-2v-14c0-1.103-.897-2-2-2h-2.746c-.255-.631-.55-1.248-.933-1.822l-.119-.178h4.798c1.654 0 3 1.346 3 3v41h-2v-22h-28v22h-2v-41c0-1.654 1.346-3 3-3zm14 41v-5h3c3.859 0 7-3.141 7-7v-1h-5c-2.192 0-4.15 1.014-5.434 2.597-.984-2.678-3.552-4.597-6.566-4.597h-5v1c0 3.859 3.141 7 7 7h3v1 1 1.026c-.838-.635-1.87-1.026-3-1.026h-7v1c0 2.757 2.243 5 5 5h5v2h-11v-20h24v20h-11v-2zm.101-7c.465-2.279 2.484-4 4.899-4h2.899c-.465 2.279-2.484 4-4.899 4zm-2.202-2h-2.899c-2.415 0-4.435-1.721-4.899-4h2.899c2.415 0 4.435 1.721 4.899 4zm-.07 8h-4.829c-1.304 0-2.416-.836-2.829-2h4.829c1.304 0 2.416.836 2.829 2zm21.171 9v1h-40v-1c0-1.654 1.346-3 3-3h34c1.654 0 3 1.346 3 3zm16-28v3.101c-2.279.465-4 2.484-4 4.899v3h-4v-11c0-.552.448-1 1-1h6c.552 0 1 .448 1 1zm1.555-13.168-4.219 2.812c-.837.559-1.336 1.492-1.336 2.497v4.859h-2v-4.859c0-1.676.832-3.23 2.227-4.16l4.217-2.812c.451-.299 1.095-.168 1.39.276.304.459.18 1.081-.279 1.387z"/></svg>