<svg id="Layer_5" enable-background="new 0 0 64 64" height="512" viewBox="0 0 64 64" width="512" xmlns="http://www.w3.org/2000/svg"><path d="m63 44v-2c0-1.302-.839-2.402-2-2.816v-21.517l-.2-.268c-2.067-2.754-5.357-4.399-8.8-4.399h-4c-.336 0-.668.029-1 .059v-7.392l-.2-.268c-2.067-2.754-5.357-4.399-8.8-4.399h-6c-3.443 0-6.733 1.645-8.8 4.399l-.2.268v9.37c-.332-.019-.664-.037-1-.037h-2c-6.725 0-12.719 3.906-15.473 10h-.527c-1.654 0-3 1.346-3 3v2c0 1.302.839 2.402 2 2.816v22.369c-1.161.413-2 1.513-2 2.815v5h37 3 22v-5c0-1.302-.839-2.402-2-2.816v-8.369c1.161-.413 2-1.513 2-2.815zm-22-14v-2-5h14v-2h-14v-2h18v2h-2v2h2v14.103c-2.343-3.734-6.476-6.103-11-6.103-3.405 0-6.605 1.339-9 3.654v-1.839c1.161-.413 2-1.513 2-2.815zm-2 7.719c2.06-2.954 5.397-4.719 9-4.719 4.153 0 7.917 2.362 9.778 6h-18.778zm-2 14.536-21.394-19.255h21.394zm-12.069-3.255h5.463l2.222 2h-5.462zm-5.648-10h-5.469l-2.223-2h5.471zm2.222 2 2.222 2h-5.467l-2.223-2zm4.445 4 2.222 2h-5.465l-2.223-2zm-13.334-12 2.222 2h-5.471l-2.223-2zm15.995 22h-23.611v-21.238zm2.99 0-2.223-2h5.461l2.161 1.945v.055zm7.399 0v-6.676l9.744 6.676zm13.283 0-11.676-8h6.322l11.669 8zm-1.816-8h8.533v5.85zm10.533-3c0 .552-.449 1-1 1h-21v-4h21c.551 0 1 .448 1 1zm-9-29c2.064 0 4.058.727 5.644 2h-15.288c1.585-1.273 3.579-2 5.644-2zm-14-12c2.064 0 4.058.727 5.644 2h-17.288c1.586-1.273 3.58-2 5.644-2zm-13 8h2v-2h-2v-2h20v2h-16v2h16v2.439c-2.288.654-4.348 2.025-5.8 3.96l-.2.268v7.517c-.314-.112-.648-.184-1-.184h-.527c-2.336-5.169-7.003-8.755-12.473-9.726zm-5 6h2c5.624 0 10.67 3.097 13.25 8h-28.5c2.58-4.903 7.626-8 13.25-8zm-17 11c0-.552.449-1 1-1h34c.551 0 1 .448 1 1v2c0 .552-.449 1-1 1h-34c-.551 0-1-.448-1-1zm35 33h-35v-3c0-.552.449-1 1-1h34c.551 0 1 .448 1 1v3zm23 0h-20v-3c0-.352-.072-.686-.184-1h19.184c.551 0 1 .448 1 1z"/><path d="m33 45h2v2h-2z"/><path d="m33 37v6h2v-8h-4v2z"/><path d="m7 40h2v2h-2z"/><path d="m7 44h2v2h-2z"/><path d="m11 54v-2h-2v-4h-2v6z"/></svg>