<svg id="Layer_5" enable-background="new 0 0 64 64" height="512" viewBox="0 0 64 64" width="512" xmlns="http://www.w3.org/2000/svg"><path d="m12.676 6.497v-.001z"/><path d="m14.754 25h.492c3.724 0 6.754-3.03 6.754-6.754 0-.971-.204-1.91-.605-2.795l-4.07-8.954c-.414-.909-1.326-1.497-2.325-1.497s-1.911.588-2.324 1.497l-4.071 8.954c-.401.885-.605 1.824-.605 2.795 0 3.724 3.03 6.754 6.754 6.754zm-4.328-8.721 4.071-8.955v-.001c.089-.196.287-.323.503-.323s.414.127.503.324l4.07 8.955c.283.622.427 1.284.427 1.967 0 2.621-2.133 4.754-4.754 4.754h-.492c-2.621 0-4.754-2.133-4.754-4.754 0-.683.144-1.345.426-1.967z"/><path d="m55 23.059v-3.059c0-1.654-1.346-3-3-3h-10c-1.654 0-3 1.346-3 3v3h-12.527c1.588-2.27 2.527-5.026 2.527-8 0-7.72-6.28-14-14-14s-14 6.28-14 14c0 3.73 1.475 7.115 3.861 9.626-2.408 1.667-3.861 4.382-3.861 7.374v12c0 3.929 2.535 7.269 6.051 8.494-1.254 1.1-2.051 2.71-2.051 4.506 0 3.309 2.691 6 6 6s6-2.691 6-6c0-1.538-.586-2.937-1.54-4h3.081c-.955 1.063-1.541 2.462-1.541 4 0 3.309 2.691 6 6 6s6-2.691 6-6c0-1.538-.586-2.937-1.54-4h9.081c-.955 1.063-1.541 2.462-1.541 4 0 3.309 2.691 6 6 6s6-2.691 6-6c0-1.538-.586-2.937-1.54-4h3.081c-.955 1.063-1.541 2.462-1.541 4 0 3.309 2.691 6 6 6s6-2.691 6-6c0-1.796-.797-3.406-2.051-4.506 3.516-1.225 6.051-4.565 6.051-8.494v-12c0-4.625-3.507-8.442-8-8.941zm-1 27.941h-1v-26h1c.34 0 .672.033 1 .08v25.84c-.328.047-.66.08-1 .08zm-44 0c-.34 0-.672-.033-1-.08v-23.29c.643.307 1.308.574 2 .78v22.59zm3-22.16c.655.094 1.319.16 2 .16 3.804 0 7.254-1.53 9.779-4h.221v26h-12zm14 .16h10v2h-10zm0 4h10v2h-10zm0 4h10v2h-10zm0 4h10v2h-10zm0 4h10v2h-10zm10-18h-10v-2h10zm-10 22h10v2h-10zm12 2v-26h12v26zm2-31c0-.552.449-1 1-1h10c.551 0 1 .448 1 1v3h-12zm-26-17c6.617 0 12 5.383 12 12s-5.383 12-12 12-12-5.383-12-12 5.383-12 12-12zm-12 41v-12c0-2.483 1.295-4.712 3.401-5.976.196.154.394.306.599.449v23.842c-2.361-1.127-4-3.53-4-6.315zm12 13c0 2.206-1.794 4-4 4s-4-1.794-4-4 1.794-4 4-4 4 1.794 4 4zm12 0c0 2.206-1.794 4-4 4s-4-1.794-4-4 1.794-4 4-4 4 1.794 4 4zm18 0c0 2.206-1.794 4-4 4s-4-1.794-4-4 1.794-4 4-4 4 1.794 4 4zm8 4c-2.206 0-4-1.794-4-4s1.794-4 4-4 4 1.794 4 4-1.794 4-4 4zm8-17c0 2.785-1.639 5.188-4 6.315v-24.63c2.361 1.126 4 3.53 4 6.315z"/><path d="m46 32h-2c-1.654 0-3 1.346-3 3v6c0 1.654 1.346 3 3 3h2c1.654 0 3-1.346 3-3v-6c0-1.654-1.346-3-3-3zm1 9c0 .552-.449 1-1 1h-2c-.551 0-1-.448-1-1v-6c0-.552.449-1 1-1h2c.551 0 1 .448 1 1z"/><path d="m23 35c0-1.654-1.346-3-3-3h-2c-1.654 0-3 1.346-3 3v6c0 1.654 1.346 3 3 3h2c1.654 0 3-1.346 3-3zm-2 6c0 .552-.449 1-1 1h-2c-.551 0-1-.448-1-1v-6c0-.552.449-1 1-1h2c.551 0 1 .448 1 1z"/><path d="m15 47h2v2h-2z"/><path d="m19 47h2v2h-2z"/><path d="m43 27h2v2h-2z"/><path d="m47 27h2v2h-2z"/></svg>