<svg id="Layer_5" enable-background="new 0 0 64 64" height="512" viewBox="0 0 64 64" width="512" xmlns="http://www.w3.org/2000/svg"><path d="m57.467 41.474-1.762-.947c-.297.554-.629 1.093-.986 1.602l1.638 1.148c.401-.574.775-1.18 1.11-1.803z"/><path d="m55.045 44.936-1.494-1.33c-.417.469-.865.916-1.331 1.329l1.327 1.496c.525-.465 1.029-.968 1.498-1.495z"/><path d="m62.97 38.242.03-5.242h-5v-6.901l1.82-9.099h.18c1.654 0 3-1.346 3-3s-1.346-3-3-3h-4v-8h-7.162l-6.838 2.279v5.721h-4v-10h-8v10h-4c-1.654 0-3 1.346-3 3s1.346 3 3 3h.18l1.82 9.099v6.901h-6.101c-.465-2.279-2.484-4-4.899-4s-4.434 1.721-4.899 4h-11.101v5l.03.242c2.466 9.867 11.292 16.758 21.462 16.758h9.508 1.974 2.026c.551 0 1 .448 1 1s-.449 1-1 1h-12c-1.654 0-3 1.346-3 3s1.346 3 3 3h36c1.654 0 3-1.346 3-3s-1.346-3-3-3h-14c-.551 0-1-.448-1-1s.449-1 1-1h9c1.654 0 3-1.346 3-3 0-1.187-.699-2.206-1.701-2.692 3.257-2.935 5.601-6.783 6.671-11.066zm-1.97-1.242h-40.026c.442-.584.773-1.257.924-2h39.102zm-4.82-12h-2.18v-8h3.78zm-8.18 0h-2v-4h2zm-4-6v6h-2v-6h-6v6h-2v-8h18v8h-2v-6zm-4 6h-2v-4h2zm4-18.279 5.162-1.721h4.838v6h-10zm-8-3.721v2h-4v-2zm-4 4h4v4h-4zm-7 7c0-.552.449-1 1-1h34c.551 0 1 .448 1 1s-.449 1-1 1h-34c-.551 0-1-.448-1-1zm7 3v8h-2.198l-1.585-8zm-2 10h26.017l-.014 6h-26.003zm-13 4c1.654 0 3 1.346 3 3s-1.346 3-3 3-3-1.346-3-3 1.346-3 3-3zm-4.899 4c.152.743.482 1.416.924 2h-10.025v-2zm-8.762 4h12.661v5.892c-1.981-.399-3.592-1.951-4-3.992l-.02-.099-1.941.491c.661 3.308 3.588 5.708 6.961 5.708s6.3-2.4 6.96-5.705l.02-.097-1.96-.396-.02.098c-.408 2.041-2.019 3.592-4 3.992v-5.892h42.658c-1.275 3.984-3.763 7.49-7.128 10h-21.53c-1.654 0-3 1.346-3 3 0 .352.072.686.184 1h-6.692c-8.815 0-16.505-5.698-19.153-14zm51.661 14h-9c-1.654 0-3 1.346-3 3s1.346 3 3 3h14c.551 0 1 .448 1 1s-.449 1-1 1h-36c-.551 0-1-.448-1-1s.449-1 1-1h12c1.654 0 3-1.346 3-3s-1.346-3-3-3h-2.026-1.974c-.551 0-1-.448-1-1s.449-1 1-1h23c.551 0 1 .448 1 1s-.449 1-1 1z"/><path d="m36 29h2v2h-2z"/><path d="m40 29h2v2h-2z"/><path d="m44 29h2v2h-2z"/><path d="m48 29h2v2h-2z"/><path d="m32 29h2v2h-2z"/><path d="m52 29h2v2h-2z"/><path d="m50 7h2v2h-2z"/><path d="m46 7h2v2h-2z"/></svg>