<svg id="Layer_5" enable-background="new 0 0 64 64" height="512" viewBox="0 0 64 64" width="512" xmlns="http://www.w3.org/2000/svg"><path d="m59 59v-8h-12v8zm-10-6h8v4h-8z"/><path d="m5 51v8h12v-8zm10 6h-8v-4h8z"/><path d="m23 51h18v-6h-18zm2-4h14v2h-14z"/><path d="m23 43h18v-6h-18zm2-4h14v2h-14z"/><path d="m61 30.816c1.161-.414 2-1.514 2-2.816 0-1.317-.859-2.427-2.042-2.829-.434-7.885-6.966-14.171-14.958-14.171s-14.524 6.286-14.958 14.171c-1.183.402-2.042 1.512-2.042 2.829 0 1.302.839 2.402 2 2.816v2.184h-8v-8h2v-6h-2.986c1.315-1.164 1.986-2.828 1.986-5 0-3.186-1.781-5.278-3.212-6.959-.96-1.126-1.788-2.1-1.788-3.041v-1.387l-1.316.438c-.076.025-1.015.351-1.925 1.139-1.375-2.586-3.414-3.135-3.516-3.161l-1.243-.31v1.281c0 2.492-1.414 4.437-2.782 6.317-1.141 1.568-2.218 3.048-2.218 4.683 0 2.087.517 4.399 2.344 6h-3.344v6h2v14h-1.618l-4.382 8.764v15.236h18 26 18v-16h-2zm-16 16.184v-7h14v7zm1-34c6.83 0 12.435 5.299 12.949 12h-25.898c.514-6.701 6.119-12 12.949-12zm-14 14h28c.552 0 1 .449 1 1s-.448 1-1 1h-28c-.552 0-1-.449-1-1s.448-1 1-1zm1 4h26v7h-14v-5h-12zm-20-14c0-.43.142-.856.399-1.2l1.601-2.133 1.6 2.133c.258.344.4.77.4 1.2 0 1.103-.897 2-2 2s-2-.897-2-2zm-5-4c0-.984.851-2.153 1.835-3.506 1.156-1.589 2.544-3.498 3.007-5.866.519.453 1.11 1.221 1.545 2.422-.235.557-.387 1.2-.387 1.95h2c0-1.229.681-2.022 1.305-2.491.406 1.004 1.169 1.899 1.96 2.829 1.344 1.579 2.735 3.212 2.735 5.662 0 2.407-1.049 3.883-3.317 4.56.204-.48.317-1.007.317-1.56 0-.859-.284-1.711-.8-2.4l-3.2-4.267-3.201 4.267c-.515.689-.799 1.541-.799 2.4 0 .508.105.991.278 1.439-2.22-.836-3.278-2.618-3.278-5.439zm-1 8h16v2h-16zm2 4h12v8h-2v6h-10zm-2.382 16h12.382v6h-15.382zm-3.618 20v-12h16v12zm26 0h-4v-6h4zm10 0h-4v-6h4zm2 0v-8h-8v8h-2v-8h-8v8h-2v-26h22v26zm20 0h-16v-12h16z"/><path d="m53.849 18.299c-2.089-2.127-4.876-3.299-7.849-3.299v2c2.432 0 4.712.959 6.421 2.701z"/><path d="m54.586 23.301 1.908-.602c-.242-.766-.568-1.506-.971-2.201l-1.73 1.003c.329.568.596 1.174.793 1.8z"/><path d="m19 31v-2c0-1.103-.897-2-2-2h-4c-1.103 0-2 .897-2 2v2c0 1.103.897 2 2 2h4c1.103 0 2-.897 2-2zm-6 0v-2h4l.001 2z"/><path d="m7 43h2v2h-2z"/><path d="m11 43h2v2h-2z"/><path d="m15 43h2v2h-2z"/></svg>