<svg id="Layer_5" enable-background="new 0 0 64 64" height="512" viewBox="0 0 64 64" width="512" xmlns="http://www.w3.org/2000/svg"><path d="m60 35h-2c-1.654 0-3 1.346-3 3v3h-4.101c-.152-.743-.482-1.416-.924-2h.025c1.654 0 3-1.346 3-3v-2c0-1.302-.839-2.402-2-2.816v-4.184h-8v4h-2v-4h-2v-8h3.555l4.999-8h.446c1.654 0 3-1.346 3-3s-1.346-3-3-3h-8.184c.112-.314.184-.648.184-1 0-1.654-1.346-3-3-3h-10c-1.654 0-3 1.346-3 3 0 .352.072.686.184 1h-8.184c-1.654 0-3 1.346-3 3s1.346 3 3 3h.446l4.999 8h3.555v8h-2v4h-2v-4h-8v4.184c-1.161.414-2 1.514-2 2.816v2c0 1.654 1.346 3 3 3h.026c-.442.584-.773 1.257-.924 2h-4.102v-3c0-1.654-1.346-3-3-3h-2c-1.654 0-3 1.346-3 3v22c0 1.654 1.346 3 3 3h2c1.654 0 3-1.346 3-3v-3h4.101c.465 2.279 2.484 4 4.899 4h28c2.414 0 4.434-1.721 4.899-4h4.101v3c0 1.654 1.346 3 3 3h2c1.654 0 3-1.346 3-3v-22c0-1.654-1.346-3-3-3zm-15-6h4v2h-4zm-10 2v-2h4v2zm-6.446-14-3.75-6h14.578l-3 6zm12.891 0h-2.445-.382l3-6h3.578zm-15.445-13c0-.552.448-1 1-1h10c.552 0 1 .448 1 1s-.448 1-1 1h-10c-.552 0-1-.448-1-1zm-11 4c0-.552.448-1 1-1h11 10 11c.552 0 1 .448 1 1s-.448 1-1 1h-32c-.552 0-1-.448-1-1zm7.555 9-3.75-6h3.642l3.75 6h-1.197zm4.445 2h10v8h-4v4h-2v-4h-4zm-2 10h4v2h-4zm-6 0v2h-4v-2zm-6 7v-2c0-.552.448-1 1-1h36c.552 0 1 .448 1 1v2c0 .552-.448 1-1 1h-4-28-4c-.552 0-1-.448-1-1zm-6 24c0 .552-.448 1-1 1h-2c-.552 0-1-.448-1-1v-22c0-.552.448-1 1-1h2c.552 0 1 .448 1 1zm2-17h4v12h-4zm40 13c0 1.654-1.346 3-3 3h-28c-1.654 0-3-1.346-3-3v-14c0-1.654 1.346-3 3-3h28c1.654 0 3 1.346 3 3zm2-1v-12h4v12zm10 5c0 .552-.448 1-1 1h-2c-.552 0-1-.448-1-1v-22c0-.552.448-1 1-1h2c.552 0 1 .448 1 1z"/><path d="m19 53h-2v2c0 1.103.897 2 2 2h5v-2h-5z"/><path d="m26 55h2v2h-2z"/><path d="m30 55h2v2h-2z"/><path d="m45 51h2v2h-2z"/><path d="m45 41h-4v2h4v6h2v-6c0-1.103-.897-2-2-2z"/><path d="m25 41h2v2h-2z"/><path d="m17 41h2v2h-2z"/><path d="m21 41h2v2h-2z"/></svg>