<svg id="Layer_5" enable-background="new 0 0 64 64" height="512" viewBox="0 0 64 64" width="512" xmlns="http://www.w3.org/2000/svg"><path d="m49 29h-10v10h-5.5l-6 8h-2.5v-15.414l-8.586-8.586h-4.828l-8.586 8.586v21.414h-2v10h62v-24h-14zm-2 2v2h-6v-2zm-6 4h6v4h-6zm8 14h-2v-4h2zm12 2v2h-22v-2zm-4-2h-2v-4h2zm-24 12h-4v-4h4zm-6-6v6h-2v-6h-8v6h-2v-8h22v8h-2v-6zm-4 6h-4v-4h4zm-6-28v2h-6v-2zm-6 4h6v2h-6zm0 4h6v2h-6zm0 4h6v2h-4v6h-2zm30 4h-2v-2-2h2zm-4 1v1h-22v-2h22zm-18-3v-14h4v14zm-6.586-22h3.172l6 6h-15.172zm-7.414 8h4v20h-4zm-2 22h10v6h-10zm50 6h-6v-2h6zm2 0v-4h-10v4h-6v-6h22v6zm6-12h-2v-6h-6v6h-2v-6h-6v6h-2v-6h-6v4h-7l4.5-6h26.5z"/><path d="m18 18c-1.654 0-3 1.346-3 3h2c0-.551.448-1 1-1h4c2.757 0 5-2.243 5-5v-1.019c3.352-.256 6-3.065 6-6.481 0-3.584-2.916-6.5-6.5-6.5h-1.5v2h1.5c2.481 0 4.5 2.019 4.5 4.5s-2.019 4.5-4.5 4.5h-1.5v3c0 1.654-1.346 3-3 3z"/><path d="m18 16h4l.196-1.98-.583-.117c-2.093-.419-3.613-2.273-3.613-4.408 0-2.478 2.017-4.495 4.495-4.495h.505v-2h-.505c-3.581 0-6.495 2.914-6.495 6.495 0 1.728.688 3.327 1.825 4.507-3.779.093-6.825 3.197-6.825 6.998h2c0-2.757 2.243-5 5-5z"/><path d="m48 21c-1.654 0-3 1.346-3 3v3h2v-3c0-.551.448-1 1-1h4c2.757 0 5-2.243 5-5v-1.019c3.352-.256 6-3.065 6-6.481 0-3.584-2.916-6.5-6.5-6.5h-1.5v2h1.5c2.481 0 4.5 2.019 4.5 4.5s-2.019 4.5-4.5 4.5h-1.5v3c0 1.654-1.346 3-3 3z"/><path d="m43 24c0-2.757 2.243-5 5-5h4l.196-1.98-.583-.117c-2.093-.419-3.613-2.273-3.613-4.408 0-2.478 2.017-4.495 4.495-4.495h.505v-2h-.505c-3.581 0-6.495 2.914-6.495 6.495 0 1.728.688 3.327 1.825 4.507-3.779.093-6.825 3.197-6.825 6.998v3h2z"/></svg>