<svg id="Layer_5" enable-background="new 0 0 64 64" height="512" viewBox="0 0 64 64" width="512" xmlns="http://www.w3.org/2000/svg"><path d="m63 18.721v-15.442l-7-2.333-7 2.333v3.721h-39.333l-4.667 3.5v4.5h6v12.694c-.698.99-1.238 2.102-1.579 3.306h-.421c-1.654 0-3 1.346-3 3s1.346 3 3 3h.421c.834 2.942 2.852 5.34 5.463 6.72-7.996 2.242-13.884 9.578-13.884 18.28v1h18 2 16.017 1.983 17.281l-2.5-10h-3.872l-3.619-38h2.71v3.721l6 2v15.464c-1.161.414-2 1.514-2 2.816 0 1.654 1.346 3 3 3s3-1.346 3-3c0-1.302-.839-2.402-2-2.816v-15.465zm-44-3.721v8.047c-2.246.206-4.325 1.098-6 2.481v-10.528zm15.857 35.189 4.143-3.053 7.958 5.864h-10.231c-.538-.996-1.17-1.931-1.87-2.811zm-16.607 2.811 1.75-2.333 1.75 2.333zm1.75-8c.816 0 1.612.077 2.397.188l-2.397 2.398-2.397-2.397c.785-.112 1.581-.189 2.397-.189zm4.736.678c.235.068.462.151.692.229l-2.599 5.198-1.509-2.012zm-6.056 3.416-1.509 2.012-2.599-5.198c.23-.078.458-.161.692-.229zm-4.68.143 1.882 3.763h-1.882zm12 0v3.763h-1.882zm-.883-5.517c1.726-.912 3.195-2.266 4.233-3.933l-.515 5.406c-1.172-.618-2.418-1.109-3.718-1.473zm-6.117-18.657c.33-.037.662-.063 1-.063s.67.026 1 .063v5.937h-2zm4 .457c2.527.899 4.566 2.904 5.478 5.48h-5.478zm10.222-5.303 4.15 3.228-4.814 3.744zm1.693-1.217h8.171l-4.086 3.178zm4.085 5.711 5.455 4.243-5.45 4.233-5.453-4.238zm-6.828 6.528.073-.772 5.129 3.986-5.949 4.62.204-2.143c1.353-.289 2.371-1.492 2.371-2.93 0-1.239-.755-2.304-1.828-2.761zm6.832 4.481 5.898 4.584-5.902 4.349-5.9-4.347zm-8.27 10.618.431-4.529.294-.228 5.856 4.315-3.784 2.789c-.854-.869-1.791-1.655-2.797-2.347zm9.951-.443 5.857-4.316.292.227.883 9.271zm-.05-11.441 5.121-3.977.818 8.593zm-.006-11.009 4.149-3.227.664 6.971zm-7.101-6.445.381-4h10.182l.381 4zm-3.254 13.078c-1.485-3.882-5.09-6.648-9.274-7.031v-8.047h10.71zm-13.274-4.558v5.48h-5.478c.912-2.576 2.951-4.581 5.478-5.48zm-9 8.48c0-.552.448-1 1-1h8 6 8c.552 0 1 .448 1 1s-.448 1-1 1h-22c-.552 0-1-.448-1-1zm3.522 3h16.955c-1.253 3.538-4.637 6-8.478 6s-7.224-2.462-8.477-6zm-3.522 12.991v11.009h-4.971c.251-4.292 2.111-8.151 4.971-11.009zm2 11.009v-12.719c.637-.465 1.301-.895 2-1.27v7.989h7v6zm11-6h7v-7.988c.699.375 1.363.804 2 1.27v12.718h-9zm11 6v-11.009c2.86 2.858 4.72 6.717 4.971 11.009zm21.719 0h-14.77c-.111-2.109-.557-4.127-1.302-6h14.572zm-7.619-48-.19-2h-13.819l-.19 2h-24.901v-1.5l3.333-2.5h38.667v4zm4.9-8.279 5-1.667 5 1.667v12.559l-5 1.667-5-1.667zm5 35.279c-.552 0-1-.448-1-1s.448-1 1-1 1 .448 1 1-.448 1-1 1z"/><path d="m59 6h-6v10h6zm-2 8h-2v-6h2z"/></svg>